# Blender v2.79 (sub 0) OBJ File: 'UI-2.blend'
# www.blender.org
mtllib Lvl-1.mtl
o lvl-1_Cube.010
v -3.577681 4.612296 4.686938
v -3.577681 4.737506 4.770239
v -3.702891 4.737506 4.686938
v -3.577681 5.801752 4.770239
v -3.577681 5.894299 4.686938
v -3.702891 5.769089 4.686938
v -3.577681 4.612296 4.484087
v -3.702891 4.737506 4.484087
v -3.577681 4.737506 4.400786
v -3.577681 5.894299 4.484087
v -3.577681 5.769089 4.400786
v -3.702891 5.769089 4.484087
v -2.546098 4.612296 4.686938
v -2.420888 4.737506 4.686938
v -2.546098 4.775658 4.770239
v -2.546098 5.894299 4.686938
v -2.546098 5.769089 4.770239
v -2.420888 5.769089 4.686938
v -2.546098 4.612296 4.484087
v -2.546098 4.737506 4.400786
v -2.420888 4.737506 4.484087
v -2.546098 5.894299 4.484087
v -2.420888 5.769089 4.484087
v -2.546098 5.769089 4.400786
v -3.061889 4.612296 4.484087
v -3.061889 4.737506 4.400786
v -3.061889 5.894299 4.484087
v -3.061889 5.769089 4.400786
v -3.061889 4.612296 4.686938
v -3.061889 4.737506 4.770239
v -3.061889 5.894299 4.686938
v -3.061889 5.769089 4.770239
v -3.577681 5.253297 4.770239
v -3.702891 5.253297 4.686938
v -3.577681 5.253297 4.400786
v -3.702891 5.253297 4.484087
v -2.420888 5.253297 4.484087
v -2.546098 5.253297 4.400786
v -2.546098 5.253297 4.770239
v -2.420888 5.253297 4.686938
v -3.061889 5.253297 4.400786
v -3.061889 5.253297 4.748866
v -3.005285 4.891208 4.840101
v -3.131664 4.891208 4.840101
v -3.131664 5.466935 4.840101
v -3.211905 5.466935 4.840101
v -3.211905 5.597326 4.840101
v -3.005285 5.597326 4.840101
v -3.005285 4.891208 4.600101
v -3.131664 4.891208 4.600101
v -3.131664 5.466935 4.600101
v -3.211905 5.466935 4.600101
v -3.211905 5.597326 4.600101
v -3.005285 5.597326 4.600101
v -2.993285 4.879208 4.612101
v -3.143664 4.879208 4.612101
v -3.143664 5.454935 4.612101
v -3.223905 5.454935 4.612101
v -3.223905 5.609326 4.612101
v -2.993285 5.609326 4.612101
v -2.993285 4.879208 4.828101
v -3.143664 4.879208 4.828101
v -3.143664 5.454935 4.828101
v -3.223905 5.454935 4.828101
v -3.223905 5.609326 4.828101
v -2.993285 5.609326 4.828101
vt 0.591198 0.823199
vt 0.570092 0.675072
vt 0.591198 0.675072
vt 0.617429 0.823199
vt 0.617429 0.675072
vt 0.617429 0.675072
vt 0.570092 0.859157
vt 0.591198 0.859157
vt 0.591198 0.859157
vt 0.564968 0.823199
vt 0.564968 0.675072
vt 0.564968 0.675072
vt 0.591198 0.823199
vt 0.612305 0.675072
vt 0.591198 0.675072
vt 0.570092 0.490988
vt 0.570092 0.526946
vt 0.564968 0.526946
vt 0.570092 0.832579
vt 0.570092 0.859157
vt 0.570092 0.490988
vt 0.564968 0.526946
vt 0.570092 0.526946
vt 0.570092 0.823199
vt 0.564968 0.823199
vt 0.612305 0.490988
vt 0.617429 0.526946
vt 0.612305 0.537903
vt 0.612305 0.859157
vt 0.612305 0.823199
vt 0.617429 0.823199
vt 0.612305 0.490988
vt 0.612305 0.526946
vt 0.617429 0.526946
vt 0.612305 0.859157
vt 0.612305 0.823199
vt 0.570092 0.675072
vt 0.591198 0.526946
vt 0.591198 0.490988
vt 0.612305 0.675072
vt 0.591198 0.526946
vt 0.591198 0.490988
vt 0.591198 0.745764
vt 0.612305 0.709806
vt 0.612305 0.745764
vt 0.591198 0.709806
vt 0.570092 0.719186
vt 0.570092 0.561680
vt 0.612305 0.561680
vt 0.591198 0.561680
vt 0.591198 0.413553
vt 0.297896 0.799495
vt 0.298691 0.823696
vt 0.297896 0.823696
vt 0.297896 0.955726
vt 0.298204 0.955726
vt 0.298691 0.979926
vt 0.298691 0.848873
vt 0.298204 0.692643
vt 0.298691 0.692643
vt 0.298204 0.799495
vt 0.298691 0.979926
vt 0.297896 0.955726
vt 0.297896 0.979926
vt 0.298204 0.955726
vt 0.298691 0.848873
vt 0.298204 0.848873
vt 0.298737 0.846646
vt 0.298158 0.846646
vt 0.298158 0.953499
vt 0.297849 0.953499
vt 0.297849 0.982153
vt 0.298737 0.982153
vt 0.298737 0.846646
vt 0.298158 0.846646
vt 0.298158 0.953499
vt 0.297849 0.953499
vt 0.297849 0.982153
vt 0.298737 0.982153
vt 0.298204 0.848873
vt 0.297896 0.979926
vn 0.0414 -0.0414 0.9983
vn 1.0000 0.0000 0.0000
vn 0.0000 1.0000 0.0000
vn -1.0000 0.0000 0.0000
vn 0.0000 0.0000 -1.0000
vn -0.4845 -0.4845 0.7283
vn -0.5560 0.5560 0.6178
vn -0.4845 -0.4845 -0.7283
vn -0.4845 0.4845 -0.7283
vn 0.4136 -0.4136 0.8111
vn 0.4845 0.4845 0.7283
vn 0.4845 -0.4845 -0.7283
vn 0.4845 0.4845 -0.7283
vn -0.7071 -0.7071 0.0000
vn -0.5539 0.0000 0.8326
vn -0.7071 0.7071 0.0000
vn -0.5539 0.0000 -0.8326
vn 0.0000 -0.5539 -0.8326
vn 0.0000 0.5539 -0.8326
vn 0.5539 0.0000 -0.8326
vn 0.7071 -0.7071 0.0000
vn 0.7071 0.7071 0.0000
vn 0.5539 0.0000 0.8326
vn 0.0000 -0.5539 0.8326
vn 0.0000 0.5539 0.8326
vn 0.0000 -1.0000 0.0000
vn -0.0414 0.0000 0.9991
vn -0.0000 0.0000 1.0000
vn 0.0000 0.0414 0.9991
vn 0.0336 -0.4540 0.8904
vn 0.0423 0.6684 0.7426
vn 0.0000 -0.0414 0.9991
vn -0.0414 0.0414 0.9983
vn 0.0414 0.0000 0.9991
vn 0.6507 -0.6507 -0.3913
vn -0.6507 -0.6507 -0.3913
vn -0.3002 -0.3002 -0.9054
vn 0.3002 -0.3002 -0.9054
vn -0.5789 -0.5789 -0.5743
vn -0.1100 -0.1100 -0.9878
vn -0.6507 0.6507 -0.3913
vn -0.3002 0.3002 -0.9054
vn 0.6507 0.6507 -0.3913
vn 0.3002 0.3002 -0.9054
vn 0.6507 -0.6507 0.3913
vn -0.6507 -0.6507 0.3913
vn -0.5789 -0.5789 0.5743
vn -0.6507 0.6507 0.3913
vn 0.6507 0.6507 0.3913
vn 0.3002 -0.3002 0.9054
vn -0.3002 -0.3002 0.9054
vn -0.1100 -0.1100 0.9878
vn -0.3002 0.3002 0.9054
vn 0.3002 0.3002 0.9054
usemtl Material
s off
f 32/1/1 33/2/1 42/3/1
f 23/4/2 40/5/2 37/6/2
f 10/7/3 31/8/3 27/9/3
f 6/10/4 36/11/4 34/12/4
f 28/13/5 38/14/5 41/15/5
f 1/16/6 2/17/6 3/18/6
f 4/19/7 5/20/7 6/10/7
f 7/21/8 8/22/8 9/23/8
f 10/7/9 11/24/9 12/25/9
f 13/26/10 14/27/10 15/28/10
f 16/29/11 17/30/11 18/31/11
f 19/32/12 20/33/12 21/34/12
f 22/35/13 23/4/13 24/36/13
f 1/16/14 8/22/14 7/21/14
f 4/19/15 34/12/15 33/2/15
f 10/7/16 6/10/16 5/20/16
f 9/23/17 36/11/17 35/37/17
f 7/21/18 26/38/18 25/39/18
f 22/35/19 28/13/19 27/9/19
f 21/34/20 38/14/20 37/6/20
f 19/32/21 14/27/21 13/26/21
f 16/29/22 23/4/22 22/35/22
f 15/28/23 40/5/23 39/40/23
f 13/26/24 30/41/24 29/42/24
f 5/20/25 32/1/25 31/8/25
f 19/32/26 29/42/26 25/39/26
f 25/39/26 1/16/26 7/21/26
f 31/43/25 17/44/25 16/45/25
f 29/42/24 2/17/24 1/16/24
f 27/9/19 11/24/19 10/7/19
f 25/39/18 20/33/18 19/32/18
f 11/24/5 41/15/5 35/37/5
f 27/9/3 16/29/3 22/35/3
f 17/30/27 42/3/27 39/40/27
f 39/40/28 30/41/28 15/28/28
f 35/37/5 26/38/5 9/23/5
f 39/40/23 18/31/23 17/30/23
f 37/6/20 24/36/20 23/4/20
f 35/37/17 12/25/17 11/24/17
f 33/2/15 3/18/15 2/17/15
f 41/15/5 20/33/5 26/38/5
f 34/12/4 8/22/4 3/18/4
f 37/6/2 14/27/2 21/34/2
f 42/3/29 2/17/29 30/41/29
f 32/46/28 4/47/28 33/48/28
f 23/4/2 18/31/2 40/5/2
f 10/7/3 5/20/3 31/8/3
f 6/10/4 12/25/4 36/11/4
f 28/13/5 24/36/5 38/14/5
f 1/16/14 3/18/14 8/22/14
f 4/19/15 6/10/15 34/12/15
f 10/7/16 12/25/16 6/10/16
f 9/23/17 8/22/17 36/11/17
f 7/21/18 9/23/18 26/38/18
f 22/35/19 24/36/19 28/13/19
f 21/34/20 20/33/20 38/14/20
f 19/32/21 21/34/21 14/27/21
f 16/29/22 18/31/22 23/4/22
f 15/28/23 14/27/23 40/5/23
f 13/26/30 15/28/30 30/41/30
f 5/20/31 4/19/31 32/1/31
f 19/32/26 13/26/26 29/42/26
f 25/39/26 29/42/26 1/16/26
f 31/8/25 32/1/25 17/30/25
f 29/42/24 30/41/24 2/17/24
f 27/9/19 28/13/19 11/24/19
f 25/39/18 26/38/18 20/33/18
f 11/24/5 28/13/5 41/15/5
f 27/9/3 31/8/3 16/29/3
f 17/30/32 32/1/32 42/3/32
f 39/49/33 42/50/33 30/51/33
f 35/37/5 41/15/5 26/38/5
f 39/40/23 40/5/23 18/31/23
f 37/6/20 38/14/20 24/36/20
f 35/37/17 36/11/17 12/25/17
f 33/2/15 34/12/15 3/18/15
f 41/15/5 38/14/5 20/33/5
f 34/12/4 36/11/4 8/22/4
f 37/6/2 40/5/2 14/27/2
f 42/3/34 33/2/34 2/17/34
usemtl Material.001
f 46/52/28 48/53/28 47/54/28
f 46/55/28 45/56/28 48/57/28
f 45/56/28 43/58/28 48/57/28
f 44/59/28 43/60/28 45/61/28
f 54/62/5 52/63/5 53/64/5
f 51/65/5 52/63/5 54/62/5
f 49/66/5 51/65/5 54/62/5
f 49/66/5 50/67/5 51/65/5
s 1
f 55/68/35 56/69/36 50/67/37 49/66/38
f 56/69/36 57/70/39 51/65/40 50/67/37
f 57/70/39 58/71/36 52/63/37 51/65/40
f 58/71/36 59/72/41 53/64/42 52/63/37
f 59/72/41 60/73/43 54/62/44 53/64/42
f 60/73/43 55/68/35 49/66/38 54/62/44
f 61/74/45 62/75/46 56/69/36 55/68/35
f 62/75/46 63/76/47 57/70/39 56/69/36
f 63/76/47 64/77/46 58/71/36 57/70/39
f 64/77/46 65/78/48 59/72/41 58/71/36
f 65/78/48 66/79/49 60/73/43 59/72/41
f 66/79/49 61/74/45 55/68/35 60/73/43
f 43/58/50 44/80/51 62/75/46 61/74/45
f 44/80/51 45/56/52 63/76/47 62/75/46
f 45/56/52 46/55/51 64/77/46 63/76/47
f 46/55/51 47/81/53 65/78/48 64/77/46
f 47/81/53 48/57/54 66/79/49 65/78/48
f 48/57/54 43/58/50 61/74/45 66/79/49
