# Blender v2.79 (sub 0) OBJ File: 'UI-2.blend'
# www.blender.org
mtllib Lvl-4.mtl
o lvl-4_Cube.013
v 1.037529 4.612296 4.686938
v 1.037529 4.737506 4.770239
v 0.912320 4.737506 4.686938
v 1.037529 5.801752 4.770239
v 1.037529 5.894299 4.686938
v 0.912320 5.769089 4.686938
v 1.037529 4.612296 4.484087
v 0.912320 4.737506 4.484087
v 1.037529 4.737506 4.400786
v 1.037529 5.894299 4.484087
v 1.037529 5.769089 4.400786
v 0.912320 5.769089 4.484087
v 2.069112 4.612296 4.686938
v 2.194323 4.737506 4.686938
v 2.069112 4.775658 4.770239
v 2.069112 5.894299 4.686938
v 2.069112 5.769089 4.770239
v 2.194323 5.769089 4.686938
v 2.069112 4.612296 4.484087
v 2.069112 4.737506 4.400786
v 2.194323 4.737506 4.484087
v 2.069112 5.894299 4.484087
v 2.194323 5.769089 4.484087
v 2.069112 5.769089 4.400786
v 1.553321 4.612296 4.484087
v 1.553321 4.737506 4.400786
v 1.553321 5.894299 4.484087
v 1.553321 5.769089 4.400786
v 1.553321 4.612296 4.686938
v 1.553321 4.737506 4.770239
v 1.553321 5.894299 4.686938
v 1.553321 5.769089 4.770239
v 1.037529 5.253297 4.770239
v 0.912320 5.253297 4.686938
v 1.037529 5.253297 4.400786
v 0.912320 5.253297 4.484087
v 2.194323 5.253297 4.484087
v 2.069112 5.253297 4.400786
v 2.069112 5.253297 4.770239
v 2.194323 5.253297 4.686938
v 1.553321 5.253297 4.400786
v 1.553321 5.253297 4.748866
v 1.574998 5.315481 4.840101
v 1.574998 5.597326 4.840101
v 1.703383 5.597326 4.840101
v 1.703383 4.891208 4.840101
v 1.574998 4.891208 4.840101
v 1.574998 5.183084 4.840101
v 1.345309 5.183084 4.840101
v 1.345309 5.597326 4.840101
v 1.473694 5.597326 4.840101
v 1.473694 5.315481 4.840101
v 1.574998 5.315481 4.600101
v 1.574998 5.597326 4.600101
v 1.703383 5.597326 4.600101
v 1.703383 4.891208 4.600101
v 1.574998 4.891208 4.600101
v 1.574998 5.183084 4.600101
v 1.345309 5.183084 4.600101
v 1.345309 5.597326 4.600101
v 1.473694 5.597326 4.600101
v 1.473694 5.315481 4.600101
v 1.562998 5.327481 4.612101
v 1.562998 5.609326 4.612101
v 1.715383 5.609326 4.612101
v 1.715383 4.879208 4.612101
v 1.562998 4.879208 4.612101
v 1.562998 5.171083 4.612101
v 1.333309 5.171083 4.612101
v 1.333309 5.609326 4.612101
v 1.485694 5.609326 4.612101
v 1.485694 5.327481 4.612101
v 1.562998 5.327481 4.828101
v 1.562998 5.609326 4.828101
v 1.715383 5.609326 4.828101
v 1.715383 4.879208 4.828101
v 1.562998 4.879208 4.828101
v 1.562998 5.171083 4.828101
v 1.333309 5.171083 4.828101
v 1.333309 5.609326 4.828101
v 1.485694 5.609326 4.828101
v 1.485694 5.327481 4.828101
vt 0.591198 0.823199
vt 0.570092 0.675072
vt 0.591198 0.675072
vt 0.617429 0.823199
vt 0.617429 0.675072
vt 0.617429 0.675072
vt 0.570092 0.859157
vt 0.591198 0.859157
vt 0.591198 0.859157
vt 0.564968 0.823199
vt 0.564968 0.675072
vt 0.564968 0.675072
vt 0.591198 0.823199
vt 0.612305 0.675072
vt 0.591198 0.675072
vt 0.570092 0.490988
vt 0.570092 0.526946
vt 0.564968 0.526946
vt 0.570092 0.832579
vt 0.570092 0.859157
vt 0.570092 0.490988
vt 0.564968 0.526946
vt 0.570092 0.526946
vt 0.570092 0.823199
vt 0.564968 0.823199
vt 0.612305 0.490988
vt 0.617429 0.526946
vt 0.612305 0.537903
vt 0.612305 0.859157
vt 0.612305 0.823199
vt 0.617429 0.823199
vt 0.612305 0.490988
vt 0.612305 0.526946
vt 0.617429 0.526946
vt 0.612305 0.859157
vt 0.612305 0.823199
vt 0.570092 0.675072
vt 0.591198 0.526946
vt 0.591198 0.490988
vt 0.612305 0.675072
vt 0.591198 0.526946
vt 0.591198 0.490988
vt 0.591198 0.791122
vt 0.612305 0.755164
vt 0.612305 0.791122
vt 0.612305 0.607037
vt 0.591198 0.458911
vt 0.612305 0.469867
vt 0.591198 0.607037
vt 0.570092 0.458911
vt 0.315437 0.812330
vt 0.315931 0.889212
vt 0.315437 0.889212
vt 0.315437 0.903044
vt 0.315931 0.927616
vt 0.315931 0.979926
vt 0.316321 0.927616
vt 0.316816 0.979926
vt 0.316321 0.979926
vt 0.316321 0.836902
vt 0.316816 0.758159
vt 0.316816 0.889212
vt 0.316321 0.903044
vt 0.316816 0.848873
vt 0.316321 0.848873
vt 0.315931 0.979926
vt 0.315437 0.903044
vt 0.315437 0.979926
vt 0.315931 0.927616
vt 0.316816 0.979926
vt 0.316321 0.927616
vt 0.316321 0.979926
vt 0.316816 0.848873
vt 0.316321 0.903044
vt 0.316321 0.848873
vt 0.316275 0.929844
vt 0.316275 0.982153
vt 0.316862 0.982153
vt 0.316862 0.846646
vt 0.316275 0.846646
vt 0.316275 0.900817
vt 0.315391 0.900817
vt 0.315391 0.982153
vt 0.315978 0.982153
vt 0.315978 0.929844
vt 0.316275 0.929844
vt 0.316275 0.982153
vt 0.316862 0.982153
vt 0.316862 0.846646
vt 0.316275 0.846646
vt 0.316275 0.900817
vt 0.315391 0.900817
vt 0.315391 0.982153
vt 0.315978 0.982153
vt 0.315978 0.929844
vt 0.315437 0.979926
vn 0.0414 -0.0414 0.9983
vn 1.0000 0.0000 0.0000
vn 0.0000 1.0000 0.0000
vn -1.0000 0.0000 0.0000
vn 0.0000 0.0000 -1.0000
vn -0.4845 -0.4845 0.7283
vn -0.5560 0.5560 0.6178
vn -0.4845 -0.4845 -0.7283
vn -0.4845 0.4845 -0.7283
vn 0.4136 -0.4136 0.8111
vn 0.4845 0.4845 0.7283
vn 0.4845 -0.4845 -0.7283
vn 0.4845 0.4845 -0.7283
vn -0.7071 -0.7071 0.0000
vn -0.5539 0.0000 0.8326
vn -0.7071 0.7071 0.0000
vn -0.5539 0.0000 -0.8326
vn 0.0000 -0.5539 -0.8326
vn 0.0000 0.5539 -0.8326
vn 0.5539 0.0000 -0.8326
vn 0.7071 -0.7071 0.0000
vn 0.7071 0.7071 0.0000
vn 0.5539 0.0000 0.8326
vn 0.0000 -0.5539 0.8326
vn 0.0000 0.5539 0.8326
vn 0.0000 -1.0000 0.0000
vn -0.0414 0.0000 0.9991
vn -0.0000 0.0000 1.0000
vn 0.0000 0.0414 0.9991
vn 0.0336 -0.4540 0.8904
vn 0.0423 0.6684 0.7426
vn 0.0000 -0.0414 0.9991
vn -0.0414 0.0414 0.9983
vn 0.0414 0.0000 0.9991
vn -0.5789 0.5789 -0.5742
vn -0.6507 0.6507 -0.3913
vn -0.3002 0.3002 -0.9054
vn -0.1100 0.1100 -0.9878
vn 0.6507 0.6507 -0.3913
vn 0.3002 0.3002 -0.9054
vn 0.6507 -0.6507 -0.3913
vn 0.3002 -0.3002 -0.9054
vn -0.6507 -0.6507 -0.3913
vn -0.3002 -0.3002 -0.9054
vn -0.5789 -0.5789 -0.5742
vn -0.1100 -0.1100 -0.9878
vn 0.6507 0.6507 -0.3914
vn 0.5789 0.5789 -0.5743
vn 0.1100 0.1100 -0.9878
vn -0.5789 0.5789 0.5742
vn -0.6507 0.6507 0.3913
vn 0.6507 0.6507 0.3913
vn 0.6507 -0.6507 0.3913
vn -0.6507 -0.6507 0.3913
vn -0.5789 -0.5789 0.5742
vn 0.5789 0.5789 0.5742
vn -0.1100 0.1100 0.9878
vn -0.3002 0.3002 0.9054
vn 0.3002 0.3002 0.9054
vn 0.3002 -0.3002 0.9054
vn -0.3002 -0.3002 0.9054
vn -0.1100 -0.1100 0.9878
vn 0.1100 0.1100 0.9878
usemtl Material
s off
f 32/1/1 33/2/1 42/3/1
f 23/4/2 40/5/2 37/6/2
f 10/7/3 31/8/3 27/9/3
f 6/10/4 36/11/4 34/12/4
f 28/13/5 38/14/5 41/15/5
f 1/16/6 2/17/6 3/18/6
f 4/19/7 5/20/7 6/10/7
f 7/21/8 8/22/8 9/23/8
f 10/7/9 11/24/9 12/25/9
f 13/26/10 14/27/10 15/28/10
f 16/29/11 17/30/11 18/31/11
f 19/32/12 20/33/12 21/34/12
f 22/35/13 23/4/13 24/36/13
f 1/16/14 8/22/14 7/21/14
f 4/19/15 34/12/15 33/2/15
f 10/7/16 6/10/16 5/20/16
f 9/23/17 36/11/17 35/37/17
f 7/21/18 26/38/18 25/39/18
f 22/35/19 28/13/19 27/9/19
f 21/34/20 38/14/20 37/6/20
f 19/32/21 14/27/21 13/26/21
f 16/29/22 23/4/22 22/35/22
f 15/28/23 40/5/23 39/40/23
f 13/26/24 30/41/24 29/42/24
f 5/20/25 32/1/25 31/8/25
f 19/32/26 29/42/26 25/39/26
f 25/39/26 1/16/26 7/21/26
f 31/43/25 17/44/25 16/45/25
f 29/42/24 2/17/24 1/16/24
f 27/9/19 11/24/19 10/7/19
f 25/39/18 20/33/18 19/32/18
f 11/24/5 41/15/5 35/37/5
f 27/9/3 16/29/3 22/35/3
f 17/30/27 42/3/27 39/40/27
f 39/46/28 30/47/28 15/48/28
f 35/37/5 26/38/5 9/23/5
f 39/40/23 18/31/23 17/30/23
f 37/6/20 24/36/20 23/4/20
f 35/37/17 12/25/17 11/24/17
f 33/2/15 3/18/15 2/17/15
f 41/15/5 20/33/5 26/38/5
f 34/12/4 8/22/4 3/18/4
f 37/6/2 14/27/2 21/34/2
f 42/49/29 2/50/29 30/47/29
f 32/1/28 4/19/28 33/2/28
f 23/4/2 18/31/2 40/5/2
f 10/7/3 5/20/3 31/8/3
f 6/10/4 12/25/4 36/11/4
f 28/13/5 24/36/5 38/14/5
f 1/16/14 3/18/14 8/22/14
f 4/19/15 6/10/15 34/12/15
f 10/7/16 12/25/16 6/10/16
f 9/23/17 8/22/17 36/11/17
f 7/21/18 9/23/18 26/38/18
f 22/35/19 24/36/19 28/13/19
f 21/34/20 20/33/20 38/14/20
f 19/32/21 21/34/21 14/27/21
f 16/29/22 18/31/22 23/4/22
f 15/28/23 14/27/23 40/5/23
f 13/26/30 15/28/30 30/41/30
f 5/20/31 4/19/31 32/1/31
f 19/32/26 13/26/26 29/42/26
f 25/39/26 29/42/26 1/16/26
f 31/8/25 32/1/25 17/30/25
f 29/42/24 30/41/24 2/17/24
f 27/9/19 28/13/19 11/24/19
f 25/39/18 26/38/18 20/33/18
f 11/24/5 28/13/5 41/15/5
f 27/9/3 31/8/3 16/29/3
f 17/30/32 32/1/32 42/3/32
f 39/40/33 42/3/33 30/41/33
f 35/37/5 41/15/5 26/38/5
f 39/40/23 40/5/23 18/31/23
f 37/6/20 38/14/20 24/36/20
f 35/37/17 36/11/17 12/25/17
f 33/2/15 34/12/15 3/18/15
f 41/15/5 38/14/5 20/33/5
f 34/12/4 36/11/4 8/22/4
f 37/6/2 40/5/2 14/27/2
f 42/3/34 33/2/34 2/17/34
usemtl Material.001
f 49/51/28 51/52/28 50/53/28
f 49/54/28 52/55/28 51/56/28
f 43/57/28 45/58/28 44/59/28
f 43/60/28 46/61/28 45/62/28
f 49/54/28 43/57/28 52/55/28
f 49/54/28 48/63/28 43/57/28
f 48/63/28 46/64/28 43/57/28
f 47/65/28 46/64/28 48/63/28
f 61/66/5 59/67/5 60/68/5
f 62/69/5 59/67/5 61/66/5
f 55/70/5 53/71/5 54/72/5
f 56/73/5 53/71/5 55/70/5
f 53/71/5 59/67/5 62/69/5
f 58/74/5 59/67/5 53/71/5
f 56/73/5 58/74/5 53/71/5
f 56/73/5 57/75/5 58/74/5
s 1
f 63/76/35 64/77/36 54/72/37 53/71/38
f 64/77/36 65/78/39 55/70/40 54/72/37
f 65/78/39 66/79/41 56/73/42 55/70/40
f 66/79/41 67/80/43 57/75/44 56/73/42
f 67/80/43 68/81/45 58/74/46 57/75/44
f 68/81/45 69/82/43 59/67/44 58/74/46
f 69/82/43 70/83/36 60/68/37 59/67/44
f 70/83/36 71/84/47 61/66/40 60/68/37
f 71/84/47 72/85/48 62/69/49 61/66/40
f 72/85/48 63/76/35 53/71/38 62/69/49
f 73/86/50 74/87/51 64/77/36 63/76/35
f 74/87/51 75/88/52 65/78/39 64/77/36
f 75/88/52 76/89/53 66/79/41 65/78/39
f 76/89/53 77/90/54 67/80/43 66/79/41
f 77/90/54 78/91/55 68/81/45 67/80/43
f 78/91/55 79/92/54 69/82/43 68/81/45
f 79/92/54 80/93/51 70/83/36 69/82/43
f 80/93/51 81/94/52 71/84/47 70/83/36
f 81/94/52 82/95/56 72/85/48 71/84/47
f 82/95/56 73/86/50 63/76/35 72/85/48
f 43/57/57 44/59/58 74/87/51 73/86/50
f 44/59/58 45/58/59 75/88/52 74/87/51
f 45/58/59 46/64/60 76/89/53 75/88/52
f 46/64/60 47/65/61 77/90/54 76/89/53
f 47/65/61 48/63/62 78/91/55 77/90/54
f 48/63/62 49/54/61 79/92/54 78/91/55
f 49/54/61 50/96/58 80/93/51 79/92/54
f 50/96/58 51/56/59 81/94/52 80/93/51
f 51/56/59 52/55/63 82/95/56 81/94/52
f 52/55/63 43/57/57 73/86/50 82/95/56
