# Blender v2.79 (sub 0) OBJ File: 'UI-3.blend'
# www.blender.org
mtllib Upgrade skill.mtl
o Circle.011_Circle.012
v 8.145453 2.440808 -1.015759
v 8.373977 2.598211 -1.015759
v 8.373977 2.552109 -0.904458
v 8.373977 2.440808 -0.858355
v 8.373977 2.329507 -0.904458
v 8.373977 2.283405 -1.015759
v 8.373977 2.329507 -1.127059
v 8.373977 2.440808 -1.173162
v 8.373977 2.552109 -1.127059
v 8.145453 2.650589 -1.225539
v 8.145453 2.440808 -1.312433
v 8.145453 2.231028 -1.225539
v 8.145453 2.144134 -1.015759
v 8.145453 2.231027 -0.805978
v 8.145453 2.440808 -0.719084
v 8.145453 2.650589 -0.805978
v 8.352885 2.440808 -1.015759
v 8.145453 2.737483 -1.015759
v 8.373977 2.694011 -1.015759
v 8.333815 2.737483 -1.015759
v 8.333815 2.650589 -0.805978
v 8.373977 2.619849 -0.836717
v 8.333815 2.440808 -0.719084
v 8.373977 2.440808 -0.762556
v 8.333815 2.231027 -0.805978
v 8.373977 2.261767 -0.836717
v 8.333815 2.144134 -1.015759
v 8.373977 2.187605 -1.015759
v 8.333815 2.231028 -1.225539
v 8.373977 2.261767 -1.194800
v 8.333815 2.440808 -1.312433
v 8.373977 2.440808 -1.268961
v 8.333815 2.650589 -1.225539
v 8.373977 2.619849 -1.194800
v 8.373977 2.322105 -1.015759
v 8.373977 2.505780 -0.950787
v 8.373977 2.592503 -1.029541
v 8.373977 2.506174 -1.081125
v 8.373977 2.387149 -0.880582
v 8.373977 2.615568 -1.015759
v 8.373977 2.322528 -0.921306
v 8.373977 2.322635 -0.897585
v 8.373977 2.321690 -1.108188
v 8.373977 2.440808 -1.120182
v 8.373977 2.388443 -1.151472
v 8.373977 2.321570 -1.134996
v 8.373977 2.440808 -0.912337
v 8.373977 2.592575 -1.002152
v 8.373977 2.322881 -0.842549
v 8.373977 2.321316 -1.191582
v 8.352885 2.344624 -0.898196
v 8.352885 2.360672 -0.891549
v 8.352885 2.343655 -1.015759
v 8.352885 2.440808 -0.939343
v 8.352885 2.440808 -1.095567
v 8.352885 2.365989 -1.142171
v 8.352885 2.342692 -1.132521
v 8.352885 2.342847 -1.113720
v 8.352885 2.568934 -1.015759
v 8.352885 2.489985 -1.064935
v 8.352885 2.344449 -0.919399
v 8.352885 2.488675 -0.967891
v 8.352885 2.342492 -1.156807
v 8.352885 2.344756 -0.882057
vt 0.065932 0.772333
vt 0.064177 0.654011
vt 0.071944 0.654011
vt 0.065932 0.384499
vt 0.058910 0.424100
vt 0.051416 0.335489
vt 0.030888 0.502820
vt 0.040457 0.467359
vt 0.038655 0.502820
vt 0.071944 0.502820
vt 0.065671 0.423853
vt 0.043759 0.424654
vt 0.036901 0.384499
vt 0.051416 0.618313
vt 0.052533 0.603070
vt 0.065932 0.621142
vt 0.034409 0.364184
vt 0.027364 0.502820
vt 0.034409 0.364184
vt 0.051416 0.698882
vt 0.068424 0.641457
vt 0.051416 0.698882
vt 0.075469 0.502820
vt 0.068424 0.364184
vt 0.075469 0.502820
vt 0.034409 0.641457
vt 0.027364 0.502820
vt 0.036901 0.621142
vt 0.042393 0.576375
vt 0.051416 0.306760
vt 0.051416 0.306760
vt 0.068424 0.364184
vt 0.068424 0.641457
vt 0.034409 0.641457
vt 0.051416 0.438616
vt 0.043604 0.439140
vt 0.051416 0.698882
vt 0.034409 0.641457
vt 0.051416 0.398799
vt 0.051416 0.424374
vt 0.068424 0.364184
vt 0.075469 0.502820
vt 0.060440 0.429266
vt 0.060882 0.437980
vt 0.059358 0.438082
vt 0.034409 0.364184
vt 0.060440 0.576375
vt 0.059882 0.502820
vt 0.064177 0.502820
vt 0.051416 0.306760
vt 0.056716 0.546018
vt 0.046149 0.545758
vt 0.047535 0.534454
vt 0.051416 0.587494
vt 0.068424 0.641457
vt 0.027364 0.502820
vt 0.043031 0.502820
vt 0.068424 0.792647
vt 0.051416 0.850072
vt 0.051416 0.850072
vt 0.051416 0.670152
vt 0.036901 0.535689
vt 0.051416 0.457950
vt 0.051416 0.486679
vt 0.050313 0.603118
vt 0.051416 0.606842
vt 0.041835 0.424724
vt 0.042393 0.429266
vt 0.040576 0.439344
vt 0.061083 0.424021
vt 0.062851 0.437847
vt 0.062419 0.468215
vt 0.057886 0.502820
vt 0.045221 0.502820
vt 0.210166 0.559776
vt 0.206285 0.506736
vt 0.210166 0.475102
vt 0.216636 0.475102
vt 0.214153 0.507601
vt 0.210166 0.410897
vt 0.218108 0.410364
vt 0.219632 0.410261
vt 0.221601 0.410129
vt 0.220415 0.425657
vt 0.203971 0.475102
vt 0.200096 0.422143
vt 0.199327 0.411625
vt 0.200635 0.411538
vt 0.202354 0.411422
vt 0.041885 0.439256
vt 0.037373 0.424887
vt 0.065671 0.575043
vt 0.061083 0.575211
vt 0.065932 0.535689
vt 0.051416 0.821343
vt 0.051416 0.769504
vt 0.036901 0.772333
vt 0.030888 0.654011
vt 0.038655 0.654011
vt 0.075469 0.654011
vt 0.075469 0.654011
vt 0.068424 0.792647
vt 0.034409 0.792647
vt 0.041346 0.449862
vt 0.061665 0.453376
vt 0.055403 0.535320
vn 1.0000 0.0000 0.0000
vn -1.0000 0.0000 0.0000
vn 0.7203 0.6936 -0.0057
vn 0.0000 0.9239 0.3827
vn 0.0000 -0.3827 -0.9239
vn 0.5314 0.8471 -0.0070
vn 0.0000 -0.3827 0.9239
vn 0.0000 -0.9239 -0.3827
vn 0.7435 -0.3425 -0.5743
vn 0.0000 0.3827 -0.9239
vn 0.0000 0.3827 0.9239
vn 0.0000 -0.9239 0.3827
vn 0.0000 0.9239 -0.3827
vn 0.7071 0.6533 0.2706
vn 0.7071 0.2706 0.6533
vn 0.7071 -0.2706 0.6533
vn 0.7071 -0.6533 0.2706
vn 0.7071 -0.6533 -0.2706
vn 0.7071 -0.2706 -0.6533
vn 0.7071 0.2706 -0.6533
vn 0.7071 0.6533 -0.2706
vn 0.7838 0.4391 0.4391
vn 0.7059 0.7083 -0.0032
vn 0.7089 0.7052 -0.0058
vn 0.7078 -0.3624 0.6064
vn 0.7501 -0.3392 0.5677
vn 0.7405 -0.3423 -0.5783
vn 0.5812 0.8137 -0.0067
vn 0.6793 0.6780 -0.2809
vn 0.7146 0.6995 -0.0031
vn 0.7886 -0.5681 -0.2353
vn 0.7477 -0.3382 -0.5714
vn 0.7367 -0.3464 -0.5807
vn 0.7227 0.6912 -0.0031
vn 0.7349 -0.3454 -0.5836
vn 0.8200 0.4047 -0.4048
vn 0.6691 -0.3812 0.6379
vn 0.6838 -0.3858 0.6193
vn 0.7147 0.6995 -0.0031
vn 0.6370 0.7122 0.2950
vn 0.7265 -0.3633 0.5832
vn 0.7886 -0.5681 0.2353
vn 0.7368 -0.3463 -0.5807
usemtl Material.001
s off
f 34/1/1 8/2/1 32/3/1
f 30/4/1 43/5/1 28/6/1
f 24/7/1 39/8/1 4/9/1
f 30/4/1 32/10/1 50/11/1
f 28/6/1 41/12/1 26/13/1
f 40/14/1 37/15/1 34/16/1
f 14/17/2 15/18/2 1/19/2
f 18/20/2 10/21/2 1/22/2
f 11/23/2 12/24/2 1/25/2
f 15/18/2 16/26/2 1/27/2
f 22/28/1 4/9/1 3/29/1
f 13/30/2 14/17/2 1/31/2
f 12/24/2 13/30/2 1/32/2
f 10/21/2 11/23/2 1/33/2
f 16/26/2 18/20/2 1/34/2
f 41/12/3 53/35/3 61/36/3
f 20/37/4 16/26/4 21/38/4
f 6/39/1 43/5/1 35/40/1
f 29/41/5 11/23/5 31/42/5
f 7/43/6 57/44/6 58/45/6
f 25/46/7 15/18/7 14/17/7
f 9/47/1 44/48/1 8/49/1
f 27/50/8 12/24/8 29/41/8
f 9/47/1 37/15/1 38/51/1
f 36/52/9 62/53/9 59/54/9
f 31/42/10 10/21/10 33/55/10
f 23/56/11 16/26/11 15/18/11
f 3/29/1 47/57/1 36/52/1
f 25/46/12 13/30/12 27/50/12
f 4/9/1 39/8/1 47/57/1
f 33/58/13 18/59/13 20/60/13
f 19/61/14 21/38/14 22/28/14
f 22/28/15 23/56/15 24/7/15
f 24/7/16 25/46/16 26/13/16
f 26/62/17 27/63/17 28/64/17
f 28/6/18 29/41/18 30/4/18
f 30/4/19 31/42/19 32/10/19
f 34/16/20 31/42/20 33/55/20
f 34/16/21 20/37/21 19/61/21
f 22/28/1 48/65/1 40/14/1
f 40/14/1 48/65/1 2/66/1
f 42/67/1 41/12/1 5/68/1
f 42/67/22 5/68/22 64/69/22
f 36/52/1 48/65/1 3/29/1
f 43/5/1 46/70/1 7/43/1
f 50/11/23 63/71/23 46/70/23
f 37/15/1 40/14/1 2/66/1
f 35/40/1 41/12/1 6/39/1
f 43/5/24 58/45/24 53/35/24
f 44/48/1 45/72/1 8/49/1
f 38/51/25 55/73/25 44/48/25
f 37/15/26 59/54/26 38/51/26
f 36/52/9 54/74/9 62/53/9
f 39/8/27 54/74/27 47/57/27
f 59/75/1 62/76/1 17/77/1
f 55/78/1 60/79/1 17/77/1
f 60/79/1 59/75/1 17/77/1
f 53/80/1 58/81/1 17/77/1
f 57/82/1 63/83/1 56/84/1
f 62/76/1 54/85/1 17/77/1
f 52/86/1 64/87/1 51/88/1
f 56/84/1 55/78/1 58/81/1
f 55/73/25 45/72/25 44/48/25
f 52/86/1 61/89/1 54/85/1
f 61/36/28 51/90/28 5/68/28
f 61/89/1 53/80/1 17/77/1
f 34/16/1 9/47/1 8/49/1
f 6/39/1 28/6/1 43/5/1
f 30/4/1 46/70/1 43/5/1
f 26/13/1 42/67/1 49/91/1
f 49/91/1 39/8/1 24/7/1
f 24/7/1 26/13/1 49/91/1
f 32/10/1 8/49/1 45/72/1
f 50/92/1 46/93/1 30/94/1
f 32/10/1 45/72/1 50/11/1
f 42/67/1 26/13/1 41/12/1
f 28/6/1 6/39/1 41/12/1
f 9/47/1 34/16/1 37/15/1
f 19/95/1 40/96/1 34/1/1
f 22/97/1 24/98/1 4/99/1
f 61/36/29 5/68/29 41/12/29
f 41/12/30 35/40/30 53/35/30
f 20/37/4 18/20/4 16/26/4
f 29/41/5 12/24/5 11/23/5
f 25/46/7 23/56/7 15/18/7
f 9/47/1 38/51/1 44/48/1
f 27/50/8 13/30/8 12/24/8
f 59/54/31 2/66/31 48/65/31
f 48/65/32 36/52/32 59/54/32
f 31/100/10 11/101/10 10/102/10
f 23/56/11 21/38/11 16/26/11
f 3/29/1 4/9/1 47/57/1
f 25/46/12 14/17/12 13/30/12
f 33/55/13 10/21/13 18/20/13
f 19/95/14 20/60/14 21/103/14
f 22/28/15 21/38/15 23/56/15
f 24/7/16 23/56/16 25/46/16
f 26/13/17 25/46/17 27/50/17
f 28/6/18 27/50/18 29/41/18
f 30/4/19 29/41/19 31/42/19
f 34/16/20 32/10/20 31/42/20
f 34/16/21 33/55/21 20/37/21
f 40/14/1 19/61/1 22/28/1
f 22/28/1 3/29/1 48/65/1
f 52/104/33 39/8/33 64/69/33
f 49/91/34 42/67/34 64/69/34
f 5/68/28 51/90/28 64/69/28
f 64/69/35 39/8/35 49/91/35
f 7/43/36 46/70/36 63/71/36
f 50/11/37 45/72/37 63/71/37
f 63/71/6 57/44/6 7/43/6
f 45/72/38 56/105/38 63/71/38
f 53/35/39 35/40/39 43/5/39
f 43/5/40 7/43/40 58/45/40
f 38/51/41 60/106/41 55/73/41
f 60/106/41 38/51/41 59/54/41
f 37/15/42 2/66/42 59/54/42
f 36/52/27 47/57/27 54/74/27
f 39/8/43 52/104/43 54/74/43
f 17/77/1 58/81/1 55/78/1
f 57/82/1 56/84/1 58/81/1
f 55/73/38 56/105/38 45/72/38
f 17/77/1 54/85/1 61/89/1
f 52/86/1 51/88/1 61/89/1
