# Blender v2.79 (sub 0) OBJ File: 'stozec.blend'
# www.blender.org
mtllib stozec.mtl
o Circle.001_Circle.002
v 1.983351 -0.228507 -2.486943
v 2.486942 -0.228507 -1.983352
v 2.095411 -0.228507 -2.474316
v 2.201852 -0.228507 -2.437071
v 2.297335 -0.228507 -2.377075
v 2.377075 -0.228507 -2.297335
v 2.437071 -0.228507 -2.201851
v 2.474316 -0.228507 -2.095411
v -2.486942 -0.228507 -1.983352
v -1.983351 -0.228507 -2.486943
v -2.474316 -0.228507 -2.095411
v -2.437071 -0.228507 -2.201851
v -2.377075 -0.228507 -2.297335
v -2.297335 -0.228507 -2.377075
v -2.201852 -0.228507 -2.437071
v -2.095411 -0.228507 -2.474316
v 2.486942 -0.228507 1.983352
v 1.983351 -0.228507 2.486943
v 2.474316 -0.228507 2.095411
v 2.437071 -0.228507 2.201851
v 2.377075 -0.228507 2.297335
v 2.297335 -0.228507 2.377075
v 2.201852 -0.228507 2.437071
v 2.095411 -0.228507 2.474316
v -1.983351 -0.228507 2.486943
v -2.486942 -0.228507 1.983352
v -2.095411 -0.228507 2.474316
v -2.201852 -0.228507 2.437071
v -2.297335 -0.228507 2.377075
v -2.377075 -0.228507 2.297335
v -2.437071 -0.228507 2.201851
v -2.474316 -0.228507 2.095411
v 2.486942 0.103765 -1.983352
v 1.983351 0.103765 -2.486943
v 2.474316 0.103765 -2.095411
v 2.437071 0.103765 -2.201851
v 2.377075 0.103765 -2.297335
v 2.297335 0.103765 -2.377075
v 2.201852 0.103765 -2.437071
v 2.095411 0.103765 -2.474316
v -1.983351 0.103765 -2.486943
v -2.486942 0.103765 -1.983352
v -2.095411 0.103765 -2.474316
v -2.201852 0.103765 -2.437071
v -2.297335 0.103765 -2.377075
v -2.377075 0.103765 -2.297335
v -2.437071 0.103765 -2.201851
v -2.474316 0.103765 -2.095411
v 1.983351 0.103765 2.486943
v 2.486942 0.103765 1.983352
v 2.095411 0.103765 2.474316
v 2.201852 0.103765 2.437071
v 2.297335 0.103765 2.377075
v 2.377075 0.103765 2.297335
v 2.437071 0.103765 2.201851
v 2.474316 0.103765 2.095411
v -2.486942 0.103765 1.983352
v -1.983351 0.103765 2.486943
v -2.474316 0.103765 2.095411
v -2.437071 0.103765 2.201851
v -2.377075 0.103765 2.297335
v -2.297335 0.103765 2.377075
v -2.201852 0.103765 2.437071
v -2.095411 0.103765 2.474316
vt 0.000000 0.000000
vt 0.000000 0.000000
vt 0.000000 0.000000
vt 0.000000 0.000000
vt 0.000000 0.000000
vt 0.000000 0.000000
vt 0.000000 0.000000
vt 0.000000 0.000000
vt 0.000000 0.000000
vt 0.000000 0.000000
vt 0.000000 0.000000
vt 0.000000 0.000000
vt 0.000000 0.000000
vt 0.000000 0.000000
vt 0.000000 0.000000
vt 0.000000 0.000000
vt 0.000000 0.000000
vt 0.000000 0.000000
vt 0.000000 0.000000
vt 0.000000 0.000000
vt 0.000000 0.000000
vt 0.000000 0.000000
vt 0.000000 0.000000
vt 0.000000 0.000000
vt 0.000000 0.000000
vt 0.000000 0.000000
vt 0.000000 0.000000
vt 0.000000 0.000000
vt 0.000000 0.000000
vt 0.000000 0.000000
vt 0.000000 0.000000
vt 0.000000 0.000000
vt 0.000000 0.000000
vt 0.000000 0.000000
vt 0.000000 0.000000
vt 0.000000 0.000000
vt 0.000000 0.000000
vt 0.000000 0.000000
vt 0.000000 0.000000
vt 0.000000 0.000000
vt 0.000000 0.000000
vt 0.000000 0.000000
vt 0.000000 0.000000
vt 0.000000 0.000000
vt 0.000000 0.000000
vt 0.000000 0.000000
vt 0.000000 0.000000
vt 0.000000 0.000000
vt 0.000000 0.000000
vt 0.000000 0.000000
vt 0.000000 0.000000
vt 0.000000 0.000000
vt 0.000000 0.000000
vt 0.000000 0.000000
vt 0.000000 0.000000
vt 0.000000 0.000000
vt 0.000000 0.000000
vt 0.000000 0.000000
vt 0.000000 0.000000
vt 0.000000 0.000000
vt 0.000000 0.000000
vt 0.000000 0.000000
vt 0.000000 0.000000
vt 0.000000 0.000000
vn 1.0000 0.0000 0.0000
vn -1.0000 0.0000 0.0000
vn 0.0000 0.0000 1.0000
vn 0.0000 1.0000 -0.0000
vn 0.0000 -1.0000 0.0000
vn 0.1120 0.0000 -0.9937
vn 0.3303 0.0000 -0.9439
vn 0.5320 0.0000 -0.8467
vn 0.7071 0.0000 -0.7071
vn 0.8467 0.0000 -0.5320
vn 0.9439 0.0000 -0.3303
vn 0.9937 0.0000 -0.1120
vn 0.1120 -0.0000 0.9937
vn 0.3303 -0.0000 0.9439
vn 0.5320 0.0000 0.8467
vn 0.7071 -0.0000 0.7071
vn 0.8467 0.0000 0.5320
vn 0.9439 -0.0000 0.3303
vn 0.9937 0.0000 0.1120
vn -0.1120 0.0000 0.9937
vn -0.3303 0.0000 0.9439
vn -0.5320 0.0000 0.8467
vn -0.7071 0.0000 0.7071
vn -0.8467 0.0000 0.5320
vn -0.9439 0.0000 0.3303
vn -0.9937 0.0000 0.1120
vn -0.1120 -0.0000 -0.9937
vn -0.3303 -0.0000 -0.9439
vn -0.5320 0.0000 -0.8467
vn -0.7071 -0.0000 -0.7071
vn -0.8467 0.0000 -0.5320
vn -0.9439 -0.0000 -0.3303
vn -0.9937 0.0000 -0.1120
vn 0.0000 0.0000 -1.0000
usemtl Material.002
s off
f 17/1/1 2/2/1 33/3/1 50/4/1
f 9/5/2 26/6/2 57/7/2 42/8/2
f 25/9/3 18/10/3 49/11/3 58/12/3
f 57/7/4 59/13/4 60/14/4 61/15/4 62/16/4 63/17/4 64/18/4 58/12/4 49/11/4 51/19/4 52/20/4 53/21/4 54/22/4 55/23/4 56/24/4 50/4/4 33/3/4 35/25/4 36/26/4 37/27/4 38/28/4 39/29/4 40/30/4 34/31/4 41/32/4 43/33/4 44/34/4 45/35/4 46/36/4 47/37/4 48/38/4 42/8/4
f 25/9/5 27/39/5 28/40/5 29/41/5 30/42/5 31/43/5 32/44/5 26/6/5 9/5/5 11/45/5 12/46/5 13/47/5 14/48/5 15/49/5 16/50/5 10/51/5 1/52/5 3/53/5 4/54/5 5/55/5 6/56/5 7/57/5 8/58/5 2/2/5 17/1/5 19/59/5 20/60/5 21/61/5 22/62/5 23/63/5 24/64/5 18/10/5
f 1/52/6 34/31/6 40/30/6 3/53/6
f 3/53/7 40/30/7 39/29/7 4/54/7
f 4/54/8 39/29/8 38/28/8 5/55/8
f 5/55/9 38/28/9 37/27/9 6/56/9
f 6/56/10 37/27/10 36/26/10 7/57/10
f 7/57/11 36/26/11 35/25/11 8/58/11
f 8/58/12 35/25/12 33/3/12 2/2/12
f 49/11/13 18/10/13 24/64/13 51/19/13
f 51/19/14 24/64/14 23/63/14 52/20/14
f 52/20/15 23/63/15 22/62/15 53/21/15
f 53/21/16 22/62/16 21/61/16 54/22/16
f 54/22/17 21/61/17 20/60/17 55/23/17
f 55/23/18 20/60/18 19/59/18 56/24/18
f 56/24/19 19/59/19 17/1/19 50/4/19
f 25/9/20 58/12/20 64/18/20 27/39/20
f 27/39/21 64/18/21 63/17/21 28/40/21
f 28/40/22 63/17/22 62/16/22 29/41/22
f 29/41/23 62/16/23 61/15/23 30/42/23
f 30/42/24 61/15/24 60/14/24 31/43/24
f 31/43/25 60/14/25 59/13/25 32/44/25
f 32/44/26 59/13/26 57/7/26 26/6/26
f 41/32/27 10/51/27 16/50/27 43/33/27
f 43/33/28 16/50/28 15/49/28 44/34/28
f 44/34/29 15/49/29 14/48/29 45/35/29
f 45/35/30 14/48/30 13/47/30 46/36/30
f 46/36/31 13/47/31 12/46/31 47/37/31
f 47/37/32 12/46/32 11/45/32 48/38/32
f 48/38/33 11/45/33 9/5/33 42/8/33
f 1/52/34 10/51/34 41/32/34 34/31/34
o Circle_Circle.001
v 0.921058 -1.098208 -0.618747
v 1.388499 -1.098208 0.509757
v 0.921058 -1.098208 1.638261
v -0.207447 -1.098208 2.105703
v -1.335951 -1.098208 1.638262
v -1.803393 -1.098208 0.509757
v -1.335951 -1.098208 -0.618747
v -0.207447 -1.098208 -1.086189
v -0.207447 4.749340 0.144563
v -0.465678 4.749340 0.251526
v -0.572641 4.749340 0.509757
v -0.465678 4.749340 0.767989
v -0.207447 4.749340 0.874951
v 0.050784 4.749340 0.767989
v 0.157747 4.749340 0.509757
v 0.050784 4.749340 0.251526
v 0.400232 3.608057 0.509756
v 0.650048 2.333077 0.509757
v 0.896198 1.124946 0.444875
v 1.142349 -0.083185 0.509757
v 0.220097 3.608027 0.941595
v 0.408298 2.340703 1.115307
v 0.572948 1.124946 1.225270
v 0.747003 -0.083185 1.464207
v -0.210487 3.568855 1.120469
v -0.207447 2.333077 1.367252
v -0.207447 1.124946 1.548521
v -0.207447 -0.083185 1.859553
v -0.639290 3.513488 0.941597
v -0.813788 2.333077 1.116098
v -0.987842 1.124946 1.225271
v -1.161897 -0.083185 1.464207
v -1.557243 -0.083185 0.509757
v -1.311092 1.124946 0.444875
v -1.064942 2.333078 0.509757
v -0.815126 3.474360 0.509759
v -0.634991 3.474391 0.077920
v -0.813788 2.333077 -0.096583
v -0.987842 1.124946 -0.335520
v -1.161897 -0.083185 -0.444692
v -0.204407 3.513563 -0.100955
v -0.207447 2.333077 -0.347738
v -0.207447 1.124946 -0.658770
v -0.207447 -0.083185 -0.840039
v 0.747003 -0.083185 -0.444692
v 0.572948 1.124946 -0.335520
v 0.398894 2.333078 -0.096583
v 0.224396 3.568930 0.077918
v 1.323613 -0.972849 0.509757
v 0.875176 -0.972849 1.592380
v -0.207447 -0.972849 2.040817
v -1.290070 -0.972849 1.592380
v -1.290070 -0.972849 -0.572866
v -0.207447 -0.972849 -1.021303
v -1.738507 -0.972849 0.509757
v 0.875176 -0.972849 -0.572866
v -0.268247 -1.162810 -2.048033
v 1.645550 -1.158034 -1.243204
v 1.696368 -1.245006 2.426774
v -0.198703 -1.245006 2.996661
v 2.481331 -1.245006 0.531704
v -2.093773 -1.245006 2.426774
v -2.734042 -1.192243 0.576576
v -2.031664 -1.138722 -1.102624
v 2.502541 -1.019160 0.509757
v 1.708804 -1.019160 2.426008
v -0.207447 -1.019160 2.993048
v -2.123698 -1.019160 2.426008
v -2.061589 -0.912876 -1.145752
v -0.276992 -0.936963 -2.099934
v -2.772740 -0.966397 0.554629
v 1.657986 -0.932188 -1.286332
v 0.657484 -1.245006 2.573062
v 0.808525 -1.019160 2.517308
v 0.563539 -1.245006 2.767439
v 0.579759 -1.019160 2.760105
vt 0.682711 0.834159
vt 0.674365 0.834159
vt 0.674365 0.834159
vt 0.678538 0.727175
vt 0.682711 0.834159
vt 0.678538 0.834159
vt 0.683929 0.597005
vt 0.682852 0.703993
vt 0.681123 0.703993
vt 0.676950 0.584475
vt 0.672777 0.703993
vt 0.676950 0.703993
vt 0.676950 0.597008
vt 0.672777 0.703993
vt 0.669972 0.593340
vt 0.686819 0.593333
vt 0.681123 0.703993
vt 0.683929 0.588143
vt 0.695187 0.137738
vt 0.695187 0.137738
vt 0.658714 0.137738
vt 0.667081 0.588150
vt 0.669972 0.584478
vt 0.671049 0.703993
vt 0.659455 0.167591
vt 0.655138 0.250989
vt 0.652209 0.167591
vt 0.247144 0.173767
vt 0.241344 0.355865
vt 0.245060 0.355865
vt 0.663291 0.364240
vt 0.663093 0.477491
vt 0.658067 0.364240
vt 0.238597 0.537963
vt 0.238647 0.715894
vt 0.241484 0.537963
vt 0.661527 0.250989
vt 0.659455 0.167591
vt 0.241344 0.355865
vt 0.242599 0.173767
vt 0.663291 0.364240
vt 0.667152 0.477491
vt 0.236591 0.709990
vt 0.238597 0.537963
vt 0.676950 0.081871
vt 0.692374 0.165269
vt 0.694445 0.081871
vt 0.231626 0.173767
vt 0.223401 0.355865
vt 0.220654 0.173767
vt 0.690100 0.494407
vt 0.678538 0.607658
vt 0.688336 0.607658
vt 0.224656 0.537963
vt 0.231626 0.709985
vt 0.226662 0.715883
vt 0.694445 0.167591
vt 0.698763 0.250989
vt 0.701692 0.167591
vt 0.219685 0.355865
vt 0.216109 0.173767
vt 0.693737 0.364240
vt 0.686749 0.477491
vt 0.690807 0.477491
vt 0.221769 0.537963
vt 0.224606 0.724228
vt 0.676950 0.250989
vt 0.661527 0.250989
vt 0.242599 0.173767
vt 0.232372 0.355865
vt 0.675902 0.364240
vt 0.667152 0.477491
vt 0.231626 0.537963
vt 0.236591 0.724239
vt 0.676950 0.167591
vt 0.676950 0.250989
vt 0.232372 0.355865
vt 0.675902 0.364240
vt 0.676950 0.477491
vt 0.231626 0.537963
vt 0.703279 0.297758
vt 0.693961 0.381156
vt 0.696033 0.297758
vt 0.220654 0.173767
vt 0.223401 0.355865
vt 0.686749 0.477491
vt 0.688513 0.364240
vt 0.224656 0.537963
vt 0.226662 0.730132
vt 0.694445 0.167591
vt 0.676950 0.167591
vt 0.231626 0.173767
vt 0.690100 0.494407
vt 0.678538 0.607658
vt 0.677489 0.494407
vt 0.231626 0.730137
vt 0.658714 0.137738
vt 0.635617 0.149784
vt 0.650895 0.152042
vt 0.647926 0.171403
vt 0.677305 0.142079
vt 0.676950 0.137738
vt 0.634778 0.170955
vt 0.678030 0.147025
vt 0.707929 0.142079
vt 0.696033 0.297758
vt 0.679263 0.298363
vt 0.678538 0.297758
vt 0.676950 0.137738
vt 0.717080 0.163250
vt 0.707917 0.163250
vt 0.707917 0.163250
vt 0.676950 0.163250
vt 0.707929 0.142079
vt 0.709392 0.163250
vt 0.677675 0.168196
vt 0.648623 0.150232
vt 0.707929 0.056359
vt 0.717080 0.077530
vt 0.717138 0.056359
vt 0.650198 0.173213
vt 0.678538 0.293417
vt 0.709504 0.293417
vt 0.651160 0.137738
vt 0.713315 0.163250
vt 0.702740 0.137738
vt 0.713434 0.142079
vt 0.710293 0.142079
vt 0.676950 0.081871
vt 0.647926 0.085683
vt 0.676950 0.077530
vt 0.717138 0.142079
vt 0.709392 0.077530
vt 0.694445 0.081871
vt 0.707917 0.077530
vt 0.676950 0.703993
vt 0.684439 0.834159
vt 0.685516 0.727172
vt 0.688407 0.723500
vt 0.685516 0.718310
vt 0.678538 0.714642
vt 0.678538 0.834159
vt 0.692374 0.250989
vt 0.688513 0.364240
vt 0.693737 0.278520
vt 0.688513 0.278520
vt 0.686749 0.391771
vt 0.676950 0.477491
vt 0.701692 0.081871
vt 0.698763 0.165269
vt 0.692374 0.165269
vt 0.692374 0.250989
vt 0.652209 0.081871
vt 0.634778 0.085236
vt 0.659455 0.081871
vt 0.650198 0.087493
vt 0.707917 0.077530
vt 0.677675 0.082477
vt 0.718667 0.293417
vt 0.707929 0.056359
vt 0.710293 0.056359
vn 0.0000 -1.0000 0.0000
vn -0.9066 -0.1926 -0.3755
vn -0.3754 -0.1936 -0.9064
vn 0.9099 -0.1731 0.3769
vn -0.9033 -0.1895 0.3850
vn 0.3757 -0.1896 -0.9071
vn 0.9087 -0.1805 -0.3764
vn 0.0000 1.0000 0.0000
vn 0.3913 -0.1750 0.9035
vn -0.3583 -0.1828 0.9155
vn -0.3761 -0.1850 0.9079
vn -0.3791 -0.1373 0.9151
vn -0.3723 -0.2314 0.8988
vn -0.3758 -0.1887 0.9073
vn 0.3761 -0.1850 0.9079
vn 0.3791 -0.1373 0.9151
vn 0.3723 -0.2314 0.8988
vn 0.3752 -0.1973 0.9057
vn 0.9079 -0.1850 -0.3761
vn 0.9044 -0.2044 -0.3746
vn 0.9112 -0.1654 -0.3774
vn 0.9155 -0.1879 -0.3557
vn 0.3761 -0.1850 -0.9079
vn 0.3723 -0.2314 -0.8988
vn 0.3791 -0.1373 -0.9151
vn 0.3984 -0.1787 -0.8997
vn -0.9079 -0.1850 0.3761
vn -0.9112 -0.1654 0.3774
vn -0.9044 -0.2044 0.3746
vn -0.9085 -0.1814 0.3763
vn 0.9079 -0.1850 0.3761
vn 0.9112 -0.1654 0.3774
vn 0.9044 -0.2044 0.3746
vn 0.9055 -0.1982 0.3751
vn -0.3761 -0.1850 -0.9079
vn -0.3723 -0.2314 -0.8988
vn -0.3792 -0.1342 -0.9155
vn -0.3635 -0.1793 -0.9142
vn -0.9079 -0.1850 -0.3761
vn -0.9044 -0.2044 -0.3746
vn -0.9112 -0.1654 -0.3774
vn -0.9145 -0.1792 -0.3628
vn -0.0176 0.9981 -0.0583
vn 0.0162 -0.9991 -0.0391
vn 0.1319 0.9898 0.0546
vn -0.0134 -0.9994 -0.0324
vn -0.1195 0.9904 0.0696
vn -0.0061 -1.0000 0.0025
vn -0.1013 0.9948 -0.0107
vn 0.0127 -0.9990 -0.0428
vn -0.9227 0.0495 -0.3822
vn -0.1009 0.0022 -0.9949
vn 0.9032 0.1921 0.3839
vn -0.8947 0.1308 0.4270
vn 0.2880 -0.0042 -0.9576
vn 0.9389 0.1233 -0.3214
vn 0.4628 0.2251 0.8574
vn -0.3807 0.1931 0.9043
vn -0.0392 -0.9991 -0.0163
vn 0.0285 0.9972 -0.0688
vn -0.0144 -0.9987 -0.0486
vn 0.1331 0.9890 0.0643
vn -0.0593 -0.9979 -0.0246
vn 0.0607 0.9978 -0.0252
vn -0.0392 -0.9988 -0.0299
vn -0.0675 0.9843 0.1628
vn -0.0051 -0.9987 -0.0504
vn -0.6937 0.3026 -0.6536
vn -0.0574 -0.9969 -0.0540
vn -0.2837 -0.0108 -0.9588
vn -0.9058 -0.1918 -0.3778
vn -0.3620 -0.1889 -0.9128
vn 0.9091 -0.1724 0.3792
vn -0.9066 -0.1926 0.3755
vn 0.3985 -0.1823 -0.8989
vn 0.9174 -0.1745 -0.3577
vn 0.3765 -0.1796 0.9089
vn -0.3588 -0.1800 0.9159
vn 0.3913 -0.1893 0.9006
vn 0.9055 -0.1982 -0.3751
vn -0.9057 -0.1775 0.3849
vn 0.9044 -0.1994 0.3772
vn -0.3736 -0.1376 -0.9173
vn -0.3704 -0.1828 -0.9107
vn -0.9178 -0.1573 -0.3644
vn -0.9067 -0.1865 -0.3782
vn -0.0270 0.9975 -0.0653
vn 0.0169 -0.9993 -0.0343
vn -0.0403 -0.9979 -0.0502
vn -0.0976 0.9944 0.0404
vn 0.0203 -0.9992 -0.0352
vn -0.0452 0.9988 -0.0187
vn 0.0201 -0.9986 -0.0486
vn -0.1379 -0.1495 -0.9791
vn 0.9031 0.1929 0.3838
vn -0.8952 0.1256 0.4277
vn 0.2836 0.0343 -0.9583
vn 0.9380 0.1295 -0.3217
vn 0.4627 0.2155 0.8599
vn -0.3807 0.1936 0.9042
vn 0.0253 0.9975 -0.0662
vn -0.0183 -0.9989 -0.0442
vn 0.0227 0.9866 0.1613
vn 0.0487 0.9856 0.1619
vn 0.0723 0.9820 0.1746
vn -0.0077 -0.9994 -0.0347
vn 0.1334 0.9910 -0.0143
vn 0.0377 -0.9992 -0.0156
vn -0.0429 0.9888 0.1428
vn -0.8992 0.0505 -0.4346
vn -0.2879 -0.0265 -0.9573
usemtl Material.002
s off
f 76/65/35 74/66/35 80/67/35
f 81/68/36 78/69/36 79/70/36
f 85/71/37 77/72/37 78/73/37
f 100/74/38 74/75/38 75/76/38
f 81/77/39 80/78/39 112/79/39
f 89/80/40 76/81/40 77/72/40
f 93/82/41 75/76/41 76/81/41
f 69/83/42 67/84/42 65/85/42
f 105/86/43 74/75/43 101/87/43
f 112/79/44 73/88/44 105/86/44
f 120/89/45 108/90/45 118/91/45
f 108/92/46 110/93/46 107/94/46
f 110/95/47 106/96/47 107/97/47
f 111/98/48 105/99/48 106/100/48
f 118/91/49 104/101/49 117/102/49
f 108/92/50 103/103/50 104/104/50
f 103/105/51 106/96/51 102/106/51
f 106/100/52 101/107/52 102/108/52
f 119/109/53 96/110/53 116/111/53
f 97/112/54 95/113/54 96/114/54
f 95/115/55 99/116/55 94/117/55
f 94/118/56 100/119/56 93/120/56
f 116/121/57 92/122/57 115/123/57
f 96/114/58 91/124/58 92/125/58
f 91/126/59 94/127/59 90/128/59
f 90/129/60 93/120/60 89/130/60
f 120/89/61 84/131/61 109/132/61
f 109/133/62 83/134/62 110/93/62
f 83/135/63 111/136/63 110/95/63
f 82/137/64 112/138/64 111/98/64
f 119/139/65 104/101/65 97/140/65
f 104/104/66 98/141/66 97/112/66
f 98/142/67 102/106/67 99/143/67
f 102/108/68 100/119/68 99/144/68
f 115/145/69 88/146/69 114/147/69
f 88/148/70 91/124/70 87/149/70
f 91/126/71 86/150/71 87/151/71
f 86/152/72 89/130/72 85/153/72
f 114/154/73 84/131/73 113/155/73
f 84/156/74 87/149/74 83/134/74
f 87/157/75 82/158/75 83/159/75
f 86/152/76 81/160/76 82/137/76
f 71/161/77 121/162/77 128/163/77
f 118/91/78 136/164/78 120/89/78
f 67/84/79 125/165/79 66/166/79
f 117/102/80 134/167/80 118/91/80
f 69/83/81 127/168/81 126/169/81
f 116/170/82 135/171/82 119/172/82
f 70/173/83 128/163/83 127/168/83
f 116/121/84 131/174/84 132/175/84
f 125/165/85 130/176/85 129/177/85
f 123/178/86 138/179/86 130/176/86
f 128/163/87 135/180/87 127/168/87
f 122/181/88 129/177/88 136/164/88
f 126/182/89 131/183/89 124/184/89
f 127/168/90 132/175/90 126/169/90
f 121/162/91 133/185/91 128/163/91
f 121/162/92 136/164/92 134/167/92
f 114/147/93 129/186/93 130/187/93
f 65/85/94 121/162/94 72/188/94
f 115/123/95 140/189/95 131/174/95
f 68/190/96 139/191/96 137/192/96
f 119/139/97 133/185/97 117/102/97
f 66/166/98 122/181/98 65/85/98
f 113/193/99 136/194/99 129/195/99
f 69/83/100 124/196/100 68/190/100
f 138/197/101 114/198/101 130/199/101
f 137/192/102 140/189/102 138/179/102
f 140/189/103 114/154/103 138/179/103
f 139/191/104 131/174/104 140/189/104
f 80/78/35 79/200/35 78/73/35
f 78/69/35 77/201/35 80/67/35
f 76/81/35 75/76/35 74/75/35
f 74/75/35 73/88/35 80/78/35
f 80/78/35 77/72/35 76/81/35
f 81/77/105 85/71/105 78/73/105
f 85/202/106 89/203/106 77/201/106
f 100/74/107 101/87/107 74/75/107
f 81/77/108 79/200/108 80/78/108
f 89/80/109 93/82/109 76/81/109
f 93/204/110 100/205/110 75/206/110
f 65/85/42 72/188/42 69/83/42
f 71/161/42 70/173/42 69/83/42
f 69/83/42 68/190/42 67/84/42
f 67/84/42 66/166/42 65/85/42
f 72/188/42 71/161/42 69/83/42
f 105/86/111 73/88/111 74/75/111
f 112/79/48 80/78/48 73/88/48
f 120/89/45 109/132/45 108/90/45
f 108/92/46 109/133/46 110/93/46
f 110/95/47 111/136/47 106/96/47
f 111/98/112 112/138/112 105/99/112
f 118/91/49 108/90/49 104/101/49
f 108/92/50 107/94/50 103/103/50
f 103/105/51 107/97/51 106/96/51
f 106/100/113 105/99/113 101/107/113
f 119/139/53 97/140/53 96/207/53
f 97/112/54 98/141/54 95/113/54
f 95/208/55 98/142/55 99/143/55
f 94/118/114 99/144/114 100/119/114
f 116/121/57 96/207/57 92/122/57
f 96/114/58 95/113/58 91/124/58
f 91/209/59 95/210/59 94/211/59
f 90/129/40 94/118/40 93/120/40
f 120/89/61 113/155/61 84/131/61
f 109/133/62 84/156/62 83/134/62
f 83/135/63 82/212/63 111/136/63
f 82/137/115 81/160/115 112/138/115
f 119/139/65 117/102/65 104/101/65
f 104/104/66 103/103/66 98/141/66
f 98/142/67 103/105/67 102/106/67
f 102/108/116 101/107/116 100/119/116
f 115/213/69 92/214/69 88/215/69
f 88/148/70 92/125/70 91/124/70
f 91/126/117 90/128/117 86/150/117
f 86/152/118 90/129/118 89/130/118
f 114/154/73 88/216/73 84/131/73
f 84/156/74 88/148/74 87/149/74
f 87/151/119 86/150/119 82/212/119
f 86/152/120 85/153/120 81/160/120
f 71/161/121 72/188/121 121/162/121
f 118/217/122 134/218/122 136/194/122
f 67/84/79 123/178/79 125/165/79
f 117/219/123 133/220/123 134/218/123
f 69/83/124 70/173/124 127/168/124
f 116/111/125 132/221/125 135/222/125
f 70/173/126 71/161/126 128/163/126
f 116/170/127 115/145/127 131/223/127
f 125/165/85 123/178/85 130/176/85
f 123/224/128 137/225/128 138/197/128
f 128/163/129 133/185/129 135/180/129
f 122/181/130 125/165/130 129/177/130
f 126/169/131 132/175/131 131/174/131
f 127/168/132 135/180/132 132/175/132
f 121/162/133 134/167/133 133/185/133
f 121/162/134 122/181/134 136/164/134
f 114/154/93 113/155/93 129/177/93
f 65/85/135 122/181/135 121/162/135
f 115/123/136 114/154/136 140/189/136
f 123/178/137 67/84/137 137/192/137
f 68/190/138 124/196/138 139/191/138
f 137/192/139 67/84/139 68/190/139
f 119/139/140 135/180/140 133/185/140
f 66/166/141 125/165/141 122/181/141
f 113/155/142 120/89/142 136/164/142
f 69/83/143 126/169/143 124/196/143
f 137/192/144 139/191/144 140/189/144
f 139/191/145 124/196/145 131/174/145
