# Blender v2.79 (sub 0) OBJ File: 'UI-2.blend'
# www.blender.org
mtllib Lvl-7.mtl
o lvl-7_Cube.007
v -2.039277 3.073893 4.686938
v -2.039277 3.199103 4.770239
v -2.164487 3.199103 4.686938
v -2.039277 4.263348 4.770239
v -2.039277 4.355896 4.686938
v -2.164487 4.230685 4.686938
v -2.039277 3.073893 4.484087
v -2.164487 3.199103 4.484087
v -2.039277 3.199103 4.400786
v -2.039277 4.355896 4.484087
v -2.039277 4.230685 4.400786
v -2.164487 4.230685 4.484087
v -1.007694 3.073893 4.686938
v -0.882485 3.199103 4.686938
v -1.007694 3.237255 4.770239
v -1.007694 4.355896 4.686938
v -1.007694 4.230685 4.770239
v -0.882485 4.230685 4.686938
v -1.007694 3.073893 4.484087
v -1.007694 3.199103 4.400786
v -0.882485 3.199103 4.484087
v -1.007694 4.355896 4.484087
v -0.882485 4.230685 4.484087
v -1.007694 4.230685 4.400786
v -1.523486 3.073893 4.484087
v -1.523486 3.199103 4.400786
v -1.523486 4.355896 4.484087
v -1.523486 4.230685 4.400786
v -1.523486 3.073893 4.686938
v -1.523486 3.199103 4.770239
v -1.523486 4.355896 4.686938
v -1.523486 4.230685 4.770239
v -2.039277 3.714894 4.770239
v -2.164487 3.714894 4.686938
v -2.039277 3.714894 4.400786
v -2.164487 3.714894 4.484087
v -0.882485 3.714894 4.484087
v -1.007694 3.714894 4.400786
v -1.007694 3.714894 4.770239
v -0.882485 3.714894 4.686938
v -1.523486 3.714894 4.400786
v -1.523486 3.714894 4.748866
v -1.671496 3.930720 4.840100
v -1.671496 4.061111 4.840100
v -1.363572 4.061111 4.840100
v -1.363572 3.929717 4.840100
v -1.363589 3.928189 4.840100
v -1.363641 3.926611 4.840100
v -1.363728 3.924984 4.840100
v -1.363850 3.923309 4.840100
v -1.364007 3.921585 4.840100
v -1.364199 3.919813 4.840100
v -1.364426 3.917991 4.840100
v -1.364687 3.916121 4.840100
v -1.364983 3.914202 4.840100
v -1.365314 3.912234 4.840100
v -1.365680 3.910218 4.840100
v -1.366080 3.908153 4.840100
v -1.366502 3.906094 4.840100
v -1.366930 3.904099 4.840100
v -1.367365 3.902166 4.840100
v -1.367808 3.900295 4.840100
v -1.368257 3.898488 4.840100
v -1.368713 3.896743 4.840100
v -1.369176 3.895061 4.840100
v -1.369646 3.893442 4.840100
v -1.370124 3.891885 4.840100
v -1.370608 3.890391 4.840100
v -1.371099 3.888959 4.840100
v -1.371597 3.887591 4.840100
v -1.501988 3.354993 4.840100
v -1.635388 3.354993 4.840100
v -1.496973 3.930720 4.840100
v -1.671496 3.930720 4.600100
v -1.671496 4.061111 4.600100
v -1.363572 4.061111 4.600101
v -1.363572 3.929717 4.600101
v -1.363589 3.928189 4.600101
v -1.363641 3.926611 4.600101
v -1.363728 3.924984 4.600101
v -1.363850 3.923309 4.600101
v -1.364007 3.921585 4.600101
v -1.364199 3.919812 4.600101
v -1.364426 3.917991 4.600101
v -1.364687 3.916121 4.600101
v -1.364983 3.914202 4.600101
v -1.365314 3.912234 4.600101
v -1.365680 3.910218 4.600101
v -1.366080 3.908152 4.600101
v -1.366502 3.906094 4.600101
v -1.366930 3.904099 4.600101
v -1.367365 3.902166 4.600101
v -1.367808 3.900295 4.600101
v -1.368257 3.898488 4.600101
v -1.368713 3.896743 4.600101
v -1.369176 3.895061 4.600101
v -1.369646 3.893442 4.600101
v -1.370124 3.891885 4.600101
v -1.370608 3.890391 4.600101
v -1.371099 3.888959 4.600101
v -1.371597 3.887591 4.600101
v -1.501988 3.354993 4.600100
v -1.635388 3.354993 4.600100
v -1.496973 3.930720 4.600100
v -1.683496 3.918720 4.612100
v -1.683496 4.073111 4.612100
v -1.351572 4.073112 4.612100
v -1.351572 3.929654 4.612100
v -1.351591 3.927925 4.612100
v -1.351652 3.926090 4.612100
v -1.351752 3.924227 4.612100
v -1.351890 3.922329 4.612100
v -1.352066 3.920396 4.612100
v -1.352279 3.918427 4.612100
v -1.352528 3.916420 4.612100
v -1.352814 3.914376 4.612100
v -1.353135 3.912292 4.612100
v -1.353493 3.910168 4.612100
v -1.353885 3.908005 4.612100
v -1.354312 3.905806 4.612100
v -1.354757 3.903631 4.612100
v -1.355210 3.901521 4.612100
v -1.355673 3.899466 4.612100
v -1.356146 3.897467 4.612100
v -1.356629 3.895523 4.612100
v -1.357123 3.893633 4.612100
v -1.357629 3.891796 4.612100
v -1.358148 3.890010 4.612100
v -1.358679 3.888277 4.612100
v -1.359224 3.886594 4.612100
v -1.359784 3.884961 4.612100
v -1.360096 3.884103 4.612100
v -1.492571 3.342993 4.612100
v -1.650615 3.342993 4.612100
v -1.512200 3.918720 4.612100
v -1.683496 3.918720 4.828100
v -1.683496 4.073111 4.828100
v -1.351572 4.073112 4.828100
v -1.351572 3.929654 4.828100
v -1.351591 3.927926 4.828100
v -1.351652 3.926090 4.828100
v -1.351752 3.924227 4.828100
v -1.351890 3.922329 4.828100
v -1.352066 3.920396 4.828100
v -1.352279 3.918427 4.828100
v -1.352528 3.916420 4.828100
v -1.352814 3.914376 4.828100
v -1.353135 3.912292 4.828100
v -1.353493 3.910168 4.828100
v -1.353885 3.908005 4.828100
v -1.354312 3.905806 4.828100
v -1.354757 3.903632 4.828100
v -1.355210 3.901521 4.828100
v -1.355673 3.899466 4.828100
v -1.356146 3.897467 4.828100
v -1.356629 3.895523 4.828100
v -1.357123 3.893633 4.828100
v -1.357629 3.891796 4.828100
v -1.358148 3.890010 4.828100
v -1.358679 3.888277 4.828100
v -1.359224 3.886594 4.828100
v -1.359784 3.884961 4.828100
v -1.360096 3.884103 4.828100
v -1.492571 3.342993 4.828100
v -1.650615 3.342993 4.828100
v -1.512200 3.918720 4.828100
vt 0.591198 0.823199
vt 0.570092 0.675072
vt 0.591198 0.675072
vt 0.617429 0.823199
vt 0.617429 0.675072
vt 0.617429 0.675072
vt 0.570092 0.859157
vt 0.591198 0.859157
vt 0.591198 0.859157
vt 0.564968 0.823199
vt 0.564968 0.675072
vt 0.564968 0.675072
vt 0.591198 0.823199
vt 0.612305 0.675072
vt 0.591198 0.675072
vt 0.570092 0.490988
vt 0.570092 0.526946
vt 0.564968 0.526946
vt 0.570092 0.832579
vt 0.570092 0.859157
vt 0.570092 0.490988
vt 0.564968 0.526946
vt 0.570092 0.526946
vt 0.570092 0.823199
vt 0.564968 0.823199
vt 0.612305 0.490988
vt 0.617429 0.526946
vt 0.612305 0.537903
vt 0.612305 0.859157
vt 0.612305 0.823199
vt 0.617429 0.823199
vt 0.612305 0.490988
vt 0.612305 0.526946
vt 0.617429 0.526946
vt 0.612305 0.859157
vt 0.612305 0.823199
vt 0.570092 0.675072
vt 0.591198 0.526946
vt 0.591198 0.490988
vt 0.612305 0.675072
vt 0.591198 0.526946
vt 0.591198 0.490988
vt 0.612305 0.566719
vt 0.591198 0.418593
vt 0.612305 0.429549
vt 0.303825 0.670610
vt 0.305010 0.694810
vt 0.303825 0.694810
vt 0.303825 0.562257
vt 0.304497 0.562257
vt 0.305010 0.586457
vt 0.304497 0.670610
vt 0.305010 0.670424
vt 0.303964 0.455404
vt 0.305010 0.562071
vt 0.303964 0.563757
vt 0.305010 0.670140
vt 0.305010 0.669847
vt 0.305010 0.669545
vt 0.305009 0.669235
vt 0.305009 0.668915
vt 0.305008 0.668586
vt 0.305007 0.668248
vt 0.305006 0.667900
vt 0.305005 0.667544
vt 0.305004 0.667179
vt 0.305002 0.666805
vt 0.305001 0.666422
vt 0.304999 0.666039
vt 0.304997 0.665669
vt 0.304996 0.665310
vt 0.304994 0.664963
vt 0.304992 0.664628
vt 0.304990 0.664304
vt 0.304989 0.663992
vt 0.304987 0.663691
vt 0.304985 0.663402
vt 0.304983 0.663125
vt 0.304981 0.662859
vt 0.304979 0.662605
vt 0.304477 0.563757
vt 0.305010 0.694810
vt 0.303825 0.670610
vt 0.303825 0.694810
vt 0.304497 0.670610
vt 0.305010 0.670424
vt 0.303964 0.563757
vt 0.305010 0.670140
vt 0.305010 0.669847
vt 0.305010 0.669545
vt 0.305009 0.669235
vt 0.305009 0.668915
vt 0.305008 0.668585
vt 0.305007 0.668248
vt 0.305006 0.667900
vt 0.305005 0.667544
vt 0.305004 0.667179
vt 0.305002 0.666805
vt 0.305001 0.666421
vt 0.304999 0.666039
vt 0.304997 0.665669
vt 0.304996 0.665310
vt 0.304994 0.664963
vt 0.304992 0.664628
vt 0.304990 0.664304
vt 0.304989 0.663992
vt 0.304987 0.663691
vt 0.304985 0.663402
vt 0.304983 0.663125
vt 0.304981 0.662859
vt 0.304979 0.662605
vt 0.304477 0.563757
vt 0.303779 0.668383
vt 0.303779 0.697037
vt 0.305056 0.697037
vt 0.305056 0.670412
vt 0.305056 0.670091
vt 0.305056 0.669751
vt 0.305056 0.669405
vt 0.305055 0.669053
vt 0.305055 0.668694
vt 0.305054 0.668328
vt 0.305053 0.667956
vt 0.305052 0.667576
vt 0.305050 0.667190
vt 0.305049 0.666796
vt 0.305048 0.666394
vt 0.305046 0.665986
vt 0.305044 0.665582
vt 0.305042 0.665191
vt 0.305041 0.664809
vt 0.305039 0.664438
vt 0.305037 0.664078
vt 0.305035 0.663727
vt 0.305033 0.663386
vt 0.305031 0.663054
vt 0.305029 0.662733
vt 0.305027 0.662420
vt 0.305025 0.662117
vt 0.305024 0.661958
vt 0.304514 0.561530
vt 0.303905 0.561530
vt 0.304438 0.668383
vt 0.303779 0.668383
vt 0.303779 0.697037
vt 0.305056 0.697037
vt 0.305056 0.670412
vt 0.305056 0.670091
vt 0.305056 0.669751
vt 0.305056 0.669405
vt 0.305055 0.669053
vt 0.305055 0.668694
vt 0.305054 0.668329
vt 0.305053 0.667956
vt 0.305052 0.667576
vt 0.305050 0.667190
vt 0.305049 0.666796
vt 0.305048 0.666394
vt 0.305046 0.665986
vt 0.305044 0.665583
vt 0.305042 0.665191
vt 0.305041 0.664809
vt 0.305039 0.664438
vt 0.305037 0.664078
vt 0.305035 0.663727
vt 0.305033 0.663386
vt 0.305031 0.663054
vt 0.305029 0.662733
vt 0.305027 0.662420
vt 0.305025 0.662117
vt 0.305024 0.661958
vt 0.304514 0.561530
vt 0.303905 0.561530
vt 0.304438 0.668383
vn 0.0414 -0.0414 0.9983
vn 1.0000 0.0000 0.0000
vn 0.0000 1.0000 0.0000
vn -1.0000 0.0000 0.0000
vn 0.0000 0.0000 -1.0000
vn -0.4845 -0.4845 0.7283
vn -0.5560 0.5560 0.6178
vn -0.4845 -0.4845 -0.7283
vn -0.4845 0.4845 -0.7283
vn 0.4136 -0.4136 0.8111
vn 0.4845 0.4845 0.7283
vn 0.4845 -0.4845 -0.7283
vn 0.4845 0.4845 -0.7283
vn -0.7071 -0.7071 0.0000
vn -0.5539 0.0000 0.8326
vn -0.7071 0.7071 0.0000
vn -0.5539 0.0000 -0.8326
vn 0.0000 -0.5539 -0.8326
vn 0.0000 0.5539 -0.8326
vn 0.5539 0.0000 -0.8326
vn 0.7071 -0.7071 0.0000
vn 0.7071 0.7071 0.0000
vn 0.5539 0.0000 0.8326
vn 0.0000 -0.5539 0.8326
vn 0.0000 0.5539 0.8326
vn 0.0000 -1.0000 0.0000
vn -0.0414 0.0000 0.9991
vn -0.0000 0.0000 1.0000
vn 0.0000 0.0414 0.9991
vn 0.0336 -0.4540 0.8904
vn 0.0423 0.6684 0.7426
vn 0.0000 -0.0414 0.9991
vn -0.0414 0.0414 0.9983
vn 0.0414 0.0000 0.9991
vn 0.0003 0.0000 1.0000
vn 0.0001 0.0000 1.0000
vn -0.0002 0.0000 1.0000
vn 0.0006 0.0000 1.0000
vn -0.0010 0.0000 1.0000
vn 0.0011 0.0000 1.0000
vn -0.0005 0.0000 1.0000
vn -0.0009 0.0000 1.0000
vn -0.0012 0.0000 1.0000
vn 0.0008 0.0000 1.0000
vn 0.0004 0.0000 1.0000
vn 0.0002 0.0000 1.0000
vn -0.0022 0.0000 1.0000
vn -0.0012 -0.0000 -1.0000
vn 0.0014 -0.0000 -1.0000
vn -0.0014 -0.0000 -1.0000
vn -0.6507 -0.6507 -0.3913
vn -0.6507 0.6507 -0.3913
vn -0.3002 0.3002 -0.9054
vn -0.3002 -0.3002 -0.9054
vn 0.6507 0.6507 -0.3913
vn 0.3002 0.3002 -0.9054
vn 0.9240 -0.0050 -0.3822
vn 0.3838 -0.0020 -0.9234
vn 0.9240 -0.0203 -0.3817
vn 0.3848 -0.0085 -0.9229
vn 0.9233 -0.0400 -0.3818
vn 0.3839 -0.0167 -0.9232
vn 0.9224 -0.0583 -0.3818
vn 0.3839 -0.0243 -0.9231
vn 0.9211 -0.0755 -0.3819
vn 0.3833 -0.0314 -0.9231
vn 0.9196 -0.0916 -0.3819
vn 0.3825 -0.0381 -0.9231
vn 0.9180 -0.1067 -0.3820
vn 0.3817 -0.0444 -0.9232
vn 0.9162 -0.1209 -0.3820
vn 0.3809 -0.0503 -0.9232
vn 0.9143 -0.1343 -0.3821
vn 0.3801 -0.0558 -0.9232
vn 0.9123 -0.1471 -0.3821
vn 0.3797 -0.0611 -0.9231
vn 0.9103 -0.1591 -0.3822
vn 0.3777 -0.0661 -0.9236
vn 0.9082 -0.1705 -0.3822
vn 0.3774 -0.0708 -0.9233
vn 0.9062 -0.1807 -0.3822
vn 0.3770 -0.0750 -0.9232
vn 0.9044 -0.1896 -0.3822
vn 0.3755 -0.0787 -0.9235
vn 0.9025 -0.1984 -0.3822
vn 0.3748 -0.0824 -0.9234
vn 0.9004 -0.2079 -0.3822
vn 0.3739 -0.0863 -0.9234
vn 0.8980 -0.2178 -0.3822
vn 0.3730 -0.0905 -0.9234
vn 0.8954 -0.2284 -0.3822
vn 0.3720 -0.0949 -0.9233
vn 0.8925 -0.2395 -0.3821
vn 0.3709 -0.0995 -0.9233
vn 0.8892 -0.2515 -0.3820
vn 0.3696 -0.1045 -0.9232
vn 0.8855 -0.2643 -0.3820
vn 0.3682 -0.1099 -0.9232
vn 0.8814 -0.2778 -0.3820
vn 0.3665 -0.1155 -0.9232
vn 0.8767 -0.2923 -0.3820
vn 0.3647 -0.1216 -0.9231
vn 0.8714 -0.3080 -0.3819
vn 0.3626 -0.1281 -0.9231
vn 0.8820 -0.2676 -0.3878
vn 0.3550 -0.1077 -0.9286
vn 0.5708 -0.7274 -0.3807
vn 0.2701 -0.3443 -0.8991
vn -0.7181 -0.5659 -0.4051
vn -0.3157 -0.2488 -0.9156
vn -0.6067 -0.4781 -0.6351
vn -0.0934 -0.0736 -0.9929
vn -0.6507 -0.6507 0.3913
vn -0.6507 0.6507 0.3913
vn 0.6507 0.6507 0.3913
vn 0.9240 -0.0049 0.3822
vn 0.9240 -0.0203 0.3817
vn 0.9233 -0.0400 0.3818
vn 0.9224 -0.0583 0.3818
vn 0.9211 -0.0754 0.3819
vn 0.9196 -0.0916 0.3820
vn 0.9180 -0.1067 0.3820
vn 0.9162 -0.1209 0.3820
vn 0.9143 -0.1343 0.3821
vn 0.9123 -0.1471 0.3821
vn 0.9103 -0.1591 0.3822
vn 0.9082 -0.1705 0.3822
vn 0.9062 -0.1807 0.3822
vn 0.9044 -0.1896 0.3823
vn 0.9025 -0.1984 0.3822
vn 0.9004 -0.2079 0.3822
vn 0.8980 -0.2178 0.3822
vn 0.8954 -0.2283 0.3821
vn 0.8925 -0.2395 0.3821
vn 0.8892 -0.2515 0.3821
vn 0.8855 -0.2643 0.3820
vn 0.8814 -0.2778 0.3820
vn 0.8767 -0.2923 0.3819
vn 0.8713 -0.3080 0.3819
vn 0.8820 -0.2676 0.3878
vn 0.5708 -0.7274 0.3807
vn -0.7181 -0.5659 0.4051
vn -0.6067 -0.4781 0.6351
vn -0.3002 -0.3002 0.9054
vn -0.3002 0.3002 0.9054
vn 0.3002 0.3002 0.9054
vn 0.3838 -0.0020 0.9234
vn 0.3850 -0.0085 0.9228
vn 0.3844 -0.0167 0.9230
vn 0.3838 -0.0242 0.9231
vn 0.3834 -0.0314 0.9230
vn 0.3822 -0.0381 0.9233
vn 0.3822 -0.0443 0.9230
vn 0.3807 -0.0503 0.9233
vn 0.3802 -0.0558 0.9232
vn 0.3792 -0.0611 0.9233
vn 0.3781 -0.0661 0.9234
vn 0.3776 -0.0708 0.9232
vn 0.3763 -0.0750 0.9234
vn 0.3751 -0.0787 0.9236
vn 0.3750 -0.0824 0.9233
vn 0.3735 -0.0864 0.9236
vn 0.3734 -0.0905 0.9232
vn 0.3722 -0.0949 0.9233
vn 0.3710 -0.0995 0.9232
vn 0.3696 -0.1045 0.9232
vn 0.3672 -0.1099 0.9236
vn 0.3665 -0.1155 0.9232
vn 0.3648 -0.1216 0.9231
vn 0.3626 -0.1281 0.9231
vn 0.3545 -0.1077 0.9288
vn 0.2701 -0.3443 0.8991
vn -0.3157 -0.2488 0.9156
vn -0.0934 -0.0736 0.9929
usemtl Material
s off
f 32/1/1 33/2/1 42/3/1
f 23/4/2 40/5/2 37/6/2
f 10/7/3 31/8/3 27/9/3
f 6/10/4 36/11/4 34/12/4
f 28/13/5 38/14/5 41/15/5
f 1/16/6 2/17/6 3/18/6
f 4/19/7 5/20/7 6/10/7
f 7/21/8 8/22/8 9/23/8
f 10/7/9 11/24/9 12/25/9
f 13/26/10 14/27/10 15/28/10
f 16/29/11 17/30/11 18/31/11
f 19/32/12 20/33/12 21/34/12
f 22/35/13 23/4/13 24/36/13
f 1/16/14 8/22/14 7/21/14
f 4/19/15 34/12/15 33/2/15
f 10/7/16 6/10/16 5/20/16
f 9/23/17 36/11/17 35/37/17
f 7/21/18 26/38/18 25/39/18
f 22/35/19 28/13/19 27/9/19
f 21/34/20 38/14/20 37/6/20
f 19/32/21 14/27/21 13/26/21
f 16/29/22 23/4/22 22/35/22
f 15/28/23 40/5/23 39/40/23
f 13/26/24 30/41/24 29/42/24
f 5/20/25 32/1/25 31/8/25
f 19/32/26 29/42/26 25/39/26
f 25/39/26 1/16/26 7/21/26
f 31/8/25 17/30/25 16/29/25
f 29/42/24 2/17/24 1/16/24
f 27/9/19 11/24/19 10/7/19
f 25/39/18 20/33/18 19/32/18
f 11/24/5 41/15/5 35/37/5
f 27/9/3 16/29/3 22/35/3
f 17/30/27 42/3/27 39/40/27
f 39/43/28 30/44/28 15/45/28
f 35/37/5 26/38/5 9/23/5
f 39/40/23 18/31/23 17/30/23
f 37/6/20 24/36/20 23/4/20
f 35/37/17 12/25/17 11/24/17
f 33/2/15 3/18/15 2/17/15
f 41/15/5 20/33/5 26/38/5
f 34/12/4 8/22/4 3/18/4
f 37/6/2 14/27/2 21/34/2
f 42/3/29 2/17/29 30/41/29
f 32/1/28 4/19/28 33/2/28
f 23/4/2 18/31/2 40/5/2
f 10/7/3 5/20/3 31/8/3
f 6/10/4 12/25/4 36/11/4
f 28/13/5 24/36/5 38/14/5
f 1/16/14 3/18/14 8/22/14
f 4/19/15 6/10/15 34/12/15
f 10/7/16 12/25/16 6/10/16
f 9/23/17 8/22/17 36/11/17
f 7/21/18 9/23/18 26/38/18
f 22/35/19 24/36/19 28/13/19
f 21/34/20 20/33/20 38/14/20
f 19/32/21 21/34/21 14/27/21
f 16/29/22 18/31/22 23/4/22
f 15/28/23 14/27/23 40/5/23
f 13/26/30 15/28/30 30/41/30
f 5/20/31 4/19/31 32/1/31
f 19/32/26 13/26/26 29/42/26
f 25/39/26 29/42/26 1/16/26
f 31/8/25 32/1/25 17/30/25
f 29/42/24 30/41/24 2/17/24
f 27/9/19 28/13/19 11/24/19
f 25/39/18 26/38/18 20/33/18
f 11/24/5 28/13/5 41/15/5
f 27/9/3 31/8/3 16/29/3
f 17/30/32 32/1/32 42/3/32
f 39/40/33 42/3/33 30/41/33
f 35/37/5 41/15/5 26/38/5
f 39/40/23 40/5/23 18/31/23
f 37/6/20 38/14/20 24/36/20
f 35/37/17 36/11/17 12/25/17
f 33/2/15 34/12/15 3/18/15
f 41/15/5 38/14/5 20/33/5
f 34/12/4 36/11/4 8/22/4
f 37/6/2 40/5/2 14/27/2
f 42/3/34 33/2/34 2/17/34
usemtl Material.001
f 43/46/28 45/47/28 44/48/28
f 43/49/28 73/50/28 45/51/28
f 73/52/28 46/53/28 45/47/28
f 72/54/28 46/55/28 73/50/28
f 72/56/35 47/57/35 46/53/35
f 72/56/36 48/58/36 47/57/36
f 72/56/37 49/59/37 48/58/37
f 72/56/38 50/60/38 49/59/38
f 72/56/39 51/61/39 50/60/39
f 72/56/40 52/62/40 51/61/40
f 72/56/41 53/63/41 52/62/41
f 72/56/35 54/64/35 53/63/35
f 72/56/28 55/65/28 54/64/28
f 72/56/41 56/66/41 55/65/41
f 72/56/38 57/67/38 56/66/38
f 72/56/36 58/68/36 57/67/36
f 72/56/42 59/69/42 58/68/42
f 72/56/38 60/70/38 59/69/38
f 72/56/43 61/71/43 60/70/43
f 72/56/44 62/72/44 61/71/44
f 72/56/45 63/73/45 62/72/45
f 72/56/35 64/74/35 63/73/35
f 72/56/46 65/75/46 64/74/46
f 72/56/47 66/76/47 65/75/47
f 72/56/28 67/77/28 66/76/28
f 72/56/35 68/78/35 67/77/35
f 72/56/46 69/79/46 68/78/46
f 72/56/42 70/80/42 69/79/42
f 72/56/28 71/81/28 70/80/28
f 76/82/5 74/83/5 75/84/5
f 104/85/5 74/83/5 76/82/5
f 77/86/5 104/85/5 76/82/5
f 77/86/5 103/87/5 104/85/5
f 78/88/5 103/87/5 77/86/5
f 79/89/48 103/87/48 78/88/48
f 80/90/5 103/87/5 79/89/5
f 81/91/5 103/87/5 80/90/5
f 82/92/5 103/87/5 81/91/5
f 83/93/5 103/87/5 82/92/5
f 84/94/5 103/87/5 83/93/5
f 85/95/5 103/87/5 84/94/5
f 86/96/49 103/87/49 85/95/49
f 87/97/50 103/87/50 86/96/50
f 88/98/5 103/87/5 87/97/5
f 89/99/49 103/87/49 88/98/49
f 90/100/5 103/87/5 89/99/5
f 91/101/5 103/87/5 90/100/5
f 92/102/5 103/87/5 91/101/5
f 93/103/5 103/87/5 92/102/5
f 94/104/5 103/87/5 93/103/5
f 95/105/5 103/87/5 94/104/5
f 96/106/5 103/87/5 95/105/5
f 97/107/5 103/87/5 96/106/5
f 98/108/5 103/87/5 97/107/5
f 99/109/5 103/87/5 98/108/5
f 100/110/5 103/87/5 99/109/5
f 101/111/5 103/87/5 100/110/5
f 102/112/5 103/87/5 101/111/5
s 1
f 105/113/51 106/114/52 75/84/53 74/83/54
f 106/114/52 107/115/55 76/82/56 75/84/53
f 107/115/55 108/116/57 77/86/58 76/82/56
f 108/116/57 109/117/59 78/88/60 77/86/58
f 109/117/59 110/118/61 79/89/62 78/88/60
f 110/118/61 111/119/63 80/90/64 79/89/62
f 111/119/63 112/120/65 81/91/66 80/90/64
f 112/120/65 113/121/67 82/92/68 81/91/66
f 113/121/67 114/122/69 83/93/70 82/92/68
f 114/122/69 115/123/71 84/94/72 83/93/70
f 115/123/71 116/124/73 85/95/74 84/94/72
f 116/124/73 117/125/75 86/96/76 85/95/74
f 117/125/75 118/126/77 87/97/78 86/96/76
f 118/126/77 119/127/79 88/98/80 87/97/78
f 119/127/79 120/128/81 89/99/82 88/98/80
f 120/128/81 121/129/83 90/100/84 89/99/82
f 121/129/83 122/130/85 91/101/86 90/100/84
f 122/130/85 123/131/87 92/102/88 91/101/86
f 123/131/87 124/132/89 93/103/90 92/102/88
f 124/132/89 125/133/91 94/104/92 93/103/90
f 125/133/91 126/134/93 95/105/94 94/104/92
f 126/134/93 127/135/95 96/106/96 95/105/94
f 127/135/95 128/136/97 97/107/98 96/106/96
f 128/136/97 129/137/99 98/108/100 97/107/98
f 129/137/99 130/138/101 99/109/102 98/108/100
f 130/138/101 131/139/103 100/110/104 99/109/102
f 131/139/103 132/140/105 101/111/106 100/110/104
f 132/140/105 133/141/107 102/112/108 101/111/106
f 133/141/107 134/142/109 103/87/110 102/112/108
f 134/142/109 135/143/111 104/85/112 103/87/110
f 135/143/111 105/113/51 74/83/54 104/85/112
f 136/144/113 137/145/114 106/114/52 105/113/51
f 137/145/114 138/146/115 107/115/55 106/114/52
f 138/146/115 139/147/116 108/116/57 107/115/55
f 139/147/116 140/148/117 109/117/59 108/116/57
f 140/148/117 141/149/118 110/118/61 109/117/59
f 141/149/118 142/150/119 111/119/63 110/118/61
f 142/150/119 143/151/120 112/120/65 111/119/63
f 143/151/120 144/152/121 113/121/67 112/120/65
f 144/152/121 145/153/122 114/122/69 113/121/67
f 145/153/122 146/154/123 115/123/71 114/122/69
f 146/154/123 147/155/124 116/124/73 115/123/71
f 147/155/124 148/156/125 117/125/75 116/124/73
f 148/156/125 149/157/126 118/126/77 117/125/75
f 149/157/126 150/158/127 119/127/79 118/126/77
f 150/158/127 151/159/128 120/128/81 119/127/79
f 151/159/128 152/160/129 121/129/83 120/128/81
f 152/160/129 153/161/130 122/130/85 121/129/83
f 153/161/130 154/162/131 123/131/87 122/130/85
f 154/162/131 155/163/132 124/132/89 123/131/87
f 155/163/132 156/164/133 125/133/91 124/132/89
f 156/164/133 157/165/134 126/134/93 125/133/91
f 157/165/134 158/166/135 127/135/95 126/134/93
f 158/166/135 159/167/136 128/136/97 127/135/95
f 159/167/136 160/168/137 129/137/99 128/136/97
f 160/168/137 161/169/138 130/138/101 129/137/99
f 161/169/138 162/170/139 131/139/103 130/138/101
f 162/170/139 163/171/140 132/140/105 131/139/103
f 163/171/140 164/172/141 133/141/107 132/140/105
f 164/172/141 165/173/142 134/142/109 133/141/107
f 165/173/142 166/174/143 135/143/111 134/142/109
f 166/174/143 136/144/113 105/113/51 135/143/111
f 43/46/144 44/48/145 137/145/114 136/144/113
f 44/48/145 45/47/146 138/146/115 137/145/114
f 45/47/146 46/53/147 139/147/116 138/146/115
f 46/53/147 47/57/148 140/148/117 139/147/116
f 47/57/148 48/58/149 141/149/118 140/148/117
f 48/58/149 49/59/150 142/150/119 141/149/118
f 49/59/150 50/60/151 143/151/120 142/150/119
f 50/60/151 51/61/152 144/152/121 143/151/120
f 51/61/152 52/62/153 145/153/122 144/152/121
f 52/62/153 53/63/154 146/154/123 145/153/122
f 53/63/154 54/64/155 147/155/124 146/154/123
f 54/64/155 55/65/156 148/156/125 147/155/124
f 55/65/156 56/66/157 149/157/126 148/156/125
f 56/66/157 57/67/158 150/158/127 149/157/126
f 57/67/158 58/68/159 151/159/128 150/158/127
f 58/68/159 59/69/160 152/160/129 151/159/128
f 59/69/160 60/70/161 153/161/130 152/160/129
f 60/70/161 61/71/162 154/162/131 153/161/130
f 61/71/162 62/72/163 155/163/132 154/162/131
f 62/72/163 63/73/164 156/164/133 155/163/132
f 63/73/164 64/74/165 157/165/134 156/164/133
f 64/74/165 65/75/166 158/166/135 157/165/134
f 65/75/166 66/76/167 159/167/136 158/166/135
f 66/76/167 67/77/168 160/168/137 159/167/136
f 67/77/168 68/78/169 161/169/138 160/168/137
f 68/78/169 69/79/170 162/170/139 161/169/138
f 69/79/170 70/80/171 163/171/140 162/170/139
f 70/80/171 71/81/172 164/172/141 163/171/140
f 71/81/172 72/56/173 165/173/142 164/172/141
f 72/56/173 73/52/174 166/174/143 165/173/142
f 73/52/174 43/46/144 136/144/113 166/174/143
