# Blender v2.79 (sub 0) OBJ File: 'UI-2.blend'
# www.blender.org
mtllib Back.mtl
o Back_Cube.014
v -3.577681 1.417461 4.686938
v -3.577681 1.542670 4.770239
v -3.702891 1.542670 4.686938
v -3.577681 2.606916 4.770239
v -3.577681 2.699463 4.686938
v -3.702891 2.574253 4.686938
v -3.577681 1.417461 4.484087
v -3.702891 1.542670 4.484087
v -3.577681 1.542670 4.400786
v -3.577681 2.699463 4.484087
v -3.577681 2.574253 4.400786
v -3.702891 2.574253 4.484087
v -2.546098 1.417461 4.686938
v -2.420888 1.542670 4.686938
v -2.546098 1.580823 4.770239
v -2.546098 2.699463 4.686938
v -2.546098 2.574253 4.770239
v -2.420888 2.574253 4.686938
v -2.546098 1.417461 4.484087
v -2.546098 1.542670 4.400786
v -2.420888 1.542670 4.484087
v -2.546098 2.699463 4.484087
v -2.420888 2.574253 4.484087
v -2.546098 2.574253 4.400786
v -3.061889 1.417461 4.484087
v -3.061889 1.542670 4.400786
v -3.061889 2.699463 4.484087
v -3.061889 2.574253 4.400786
v -3.061889 1.417461 4.686938
v -3.061889 1.542670 4.770239
v -3.061889 2.699463 4.686938
v -3.061889 2.574253 4.770239
v -3.577681 2.058462 4.770239
v -3.702891 2.058462 4.686938
v -3.577681 2.058462 4.400786
v -3.702891 2.058462 4.484087
v -2.420888 2.058462 4.484087
v -2.546098 2.058462 4.400786
v -2.546098 2.058462 4.770239
v -2.420888 2.058462 4.686938
v -3.061889 2.058462 4.400786
v -2.804268 2.316083 4.759541
v -3.201573 1.918779 4.754654
v -2.800243 2.058462 4.759708
v -3.061889 1.838710 4.757972
v -3.061889 2.262821 4.757334
v -3.445256 2.058462 4.764751
v -2.873715 1.730845 4.770239
v -2.796332 1.808228 4.770239
v -2.805571 2.399454 4.762996
v -2.794414 1.685387 4.770239
v -3.042149 2.200793 4.708663
v -3.042149 2.059176 4.702796
v -2.860834 2.059176 4.710309
v -3.138947 1.962379 4.706806
v -2.863623 2.237702 4.710193
v -3.042149 1.906893 4.709105
v -3.307813 2.059176 4.713804
v -2.911749 1.832145 4.717606
v -2.858124 1.885770 4.717606
v -2.864526 2.295476 4.712587
v -2.856795 1.800644 4.717606
vt 0.044393 0.823199
vt 0.023286 0.675072
vt 0.028705 0.675072
vt 0.044393 0.733761
vt 0.070623 0.823199
vt 0.070623 0.675072
vt 0.070623 0.675072
vt 0.023286 0.859157
vt 0.044393 0.859157
vt 0.044393 0.859157
vt 0.018163 0.823199
vt 0.018163 0.675072
vt 0.018163 0.675072
vt 0.044393 0.823199
vt 0.065499 0.675072
vt 0.044393 0.675072
vt 0.023286 0.490988
vt 0.023286 0.526946
vt 0.018163 0.526946
vt 0.023286 0.832579
vt 0.023286 0.859157
vt 0.023286 0.490988
vt 0.018163 0.526946
vt 0.023286 0.526946
vt 0.023286 0.823199
vt 0.018163 0.823199
vt 0.065499 0.490988
vt 0.070623 0.526946
vt 0.065499 0.537903
vt 0.065499 0.859157
vt 0.065499 0.823199
vt 0.070623 0.823199
vt 0.065499 0.490988
vt 0.065499 0.526946
vt 0.070623 0.526946
vt 0.065499 0.859157
vt 0.065499 0.823199
vt 0.023286 0.675072
vt 0.044393 0.526946
vt 0.044393 0.490988
vt 0.065499 0.675072
vt 0.044393 0.526946
vt 0.044393 0.490988
vt 0.054935 0.749057
vt 0.055100 0.675072
vt 0.065499 0.526402
vt 0.055260 0.454539
vt 0.055338 0.419261
vt 0.052093 0.432316
vt 0.044393 0.378276
vt 0.065499 0.389232
vt 0.050299 0.227753
vt 0.050220 0.263031
vt 0.050220 0.263031
vt 0.050299 0.227753
vt 0.044393 0.674529
vt 0.023286 0.683909
vt 0.023286 0.526402
vt 0.054882 0.773000
vt 0.055260 0.603210
vt 0.070623 0.526402
vt 0.070623 0.674529
vt 0.023666 0.334894
vt 0.033637 0.294779
vt 0.033637 0.294779
vt 0.023666 0.334894
vt 0.762548 0.536481
vt 0.756832 0.496367
vt 0.762548 0.473372
vt 0.050060 0.334894
vt 0.050060 0.334894
vt 0.038677 0.634958
vt 0.049895 0.408878
vt 0.049895 0.408878
vt 0.039353 0.393582
vt 0.039353 0.393582
vt 0.052093 0.580986
vt 0.044393 0.611964
vt 0.049842 0.432821
vt 0.049842 0.432821
vt 0.039353 0.271785
vt 0.039353 0.271785
vt 0.746860 0.536481
vt 0.762548 0.595170
vt 0.773090 0.610466
vt 0.773036 0.634408
vt 0.773414 0.464618
vt 0.773255 0.536481
vt 0.770248 0.442395
vt 0.773493 0.429340
vt 0.047053 0.240808
vt 0.047053 0.240808
vn 0.0414 -0.0414 0.9983
vn 1.0000 0.0000 0.0000
vn 0.0000 1.0000 0.0000
vn -1.0000 0.0000 0.0000
vn 0.0000 0.0000 -1.0000
vn -0.4845 -0.4845 0.7283
vn -0.5560 0.5560 0.6178
vn -0.4845 -0.4845 -0.7283
vn -0.4845 0.4845 -0.7283
vn 0.4136 -0.4136 0.8111
vn 0.4845 0.4845 0.7283
vn 0.4845 -0.4845 -0.7283
vn 0.4845 0.4845 -0.7283
vn -0.7071 -0.7071 0.0000
vn -0.5539 0.0000 0.8326
vn -0.7071 0.7071 0.0000
vn -0.5539 0.0000 -0.8326
vn 0.0000 -0.5539 -0.8326
vn 0.0000 0.5539 -0.8326
vn 0.5539 0.0000 -0.8326
vn 0.7071 -0.7071 0.0000
vn 0.7071 0.7071 0.0000
vn 0.5539 0.0000 0.8326
vn 0.0000 -0.5539 0.8326
vn 0.0000 0.5539 0.8326
vn 0.0000 -1.0000 0.0000
vn -0.0414 0.0000 0.9991
vn 0.0000 0.0000 1.0000
vn -0.6558 -0.0102 0.7548
vn 0.0336 -0.4540 0.8904
vn 0.0423 0.6684 0.7426
vn 0.0000 -0.0414 0.9991
vn -0.0414 0.0414 0.9983
vn 0.3044 0.4712 0.8278
vn -0.0000 0.0414 0.9991
vn -0.6316 0.0227 0.7750
vn 0.0414 0.0000 0.9991
vn -0.6319 -0.0094 0.7750
vn 0.2974 -0.5290 0.7948
vn 0.2701 -0.5397 0.7974
vn 0.2715 0.5075 0.8178
vn 0.2432 0.5175 0.8204
vn -0.6050 -0.0424 0.7951
vn 0.3017 0.5263 0.7950
usemtl Material
s off
f 32/1/1 33/2/1 47/3/1 46/4/1
f 23/5/2 40/6/2 37/7/2
f 10/8/3 31/9/3 27/10/3
f 6/11/4 36/12/4 34/13/4
f 28/14/5 38/15/5 41/16/5
f 1/17/6 2/18/6 3/19/6
f 4/20/7 5/21/7 6/11/7
f 7/22/8 8/23/8 9/24/8
f 10/8/9 11/25/9 12/26/9
f 13/27/10 14/28/10 15/29/10
f 16/30/11 17/31/11 18/32/11
f 19/33/12 20/34/12 21/35/12
f 22/36/13 23/5/13 24/37/13
f 1/17/14 8/23/14 7/22/14
f 4/20/15 34/13/15 33/2/15
f 10/8/16 6/11/16 5/21/16
f 9/24/17 36/12/17 35/38/17
f 7/22/18 26/39/18 25/40/18
f 22/36/19 28/14/19 27/10/19
f 21/35/20 38/15/20 37/7/20
f 19/33/21 14/28/21 13/27/21
f 16/30/22 23/5/22 22/36/22
f 15/29/23 40/6/23 39/41/23
f 13/27/24 30/42/24 29/43/24
f 5/21/25 32/1/25 31/9/25
f 19/33/26 29/43/26 25/40/26
f 25/40/26 1/17/26 7/22/26
f 31/9/25 17/31/25 16/30/25
f 29/43/24 2/18/24 1/17/24
f 27/10/19 11/25/19 10/8/19
f 25/40/18 20/34/18 19/33/18
f 11/25/5 41/16/5 35/38/5
f 27/10/3 16/30/3 22/36/3
f 17/31/27 42/44/27 44/45/27 39/41/27
f 39/46/28 49/47/28 51/48/28 48/49/28 30/50/28 15/51/28
f 35/38/5 26/39/5 9/24/5
f 39/41/23 18/32/23 17/31/23
f 37/7/20 24/37/20 23/5/20
f 35/38/17 12/26/17 11/25/17
f 33/2/15 3/19/15 2/18/15
f 41/16/5 20/34/5 26/39/5
f 34/13/4 8/23/4 3/19/4
f 37/7/2 14/28/2 21/35/2
f 51/52/29 49/53/29 60/54/29 62/55/29
f 32/56/28 4/57/28 33/58/28
f 23/5/2 18/32/2 40/6/2
f 10/8/3 5/21/3 31/9/3
f 6/11/4 12/26/4 36/12/4
f 28/14/5 24/37/5 38/15/5
f 1/17/14 3/19/14 8/23/14
f 4/20/15 6/11/15 34/13/15
f 10/8/16 12/26/16 6/11/16
f 9/24/17 8/23/17 36/12/17
f 7/22/18 9/24/18 26/39/18
f 22/36/19 24/37/19 28/14/19
f 21/35/20 20/34/20 38/15/20
f 19/33/21 21/35/21 14/28/21
f 16/30/22 18/32/22 23/5/22
f 15/29/23 14/28/23 40/6/23
f 13/27/30 15/29/30 30/42/30
f 5/21/31 4/20/31 32/1/31
f 19/33/26 13/27/26 29/43/26
f 25/40/26 29/43/26 1/17/26
f 31/9/25 32/1/25 17/31/25
f 29/43/24 30/42/24 2/18/24
f 27/10/19 28/14/19 11/25/19
f 25/40/18 26/39/18 20/34/18
f 11/25/5 28/14/5 41/16/5
f 27/10/3 31/9/3 16/30/3
f 17/31/32 32/1/32 46/4/32 50/59/32 42/44/32
f 39/41/33 44/45/33 49/60/33
f 35/38/5 41/16/5 26/39/5
f 39/46/23 40/61/23 18/62/23
f 37/7/20 38/15/20 24/37/20
f 35/38/17 36/12/17 12/26/17
f 33/2/15 34/13/15 3/19/15
f 41/16/5 38/15/5 20/34/5
f 34/13/4 36/12/4 8/23/4
f 37/7/2 40/6/2 14/28/2
f 47/63/34 43/64/34 55/65/34 58/66/34
f 53/67/35 55/68/35 57/69/35
f 49/53/36 44/70/36 54/71/36 60/54/36
f 43/72/37 47/3/37 33/2/37 2/18/37
f 44/70/38 42/73/38 56/74/38 54/71/38
f 46/75/39 47/63/39 58/66/39 52/76/39
f 48/77/33 45/78/33 30/42/33
f 45/78/35 43/72/35 2/18/35 30/42/35
f 50/79/40 46/75/40 52/76/40 61/80/40
f 43/64/41 45/81/41 57/82/41 55/65/41
f 53/67/37 58/83/37 55/68/37
f 52/84/1 58/83/1 53/67/1
f 56/85/32 61/86/32 52/84/32 53/67/32
f 60/87/33 54/88/33 53/67/33 57/69/33 59/89/33
f 54/88/27 56/85/27 53/67/27
f 59/89/28 62/90/28 60/87/28
f 45/81/42 48/91/42 59/92/42 57/82/42
f 42/73/43 50/79/43 61/80/43 56/74/43
f 48/91/44 51/52/44 62/55/44 59/92/44
